<svg width="24" height="24" viewBox="0 0 24 24" fill="none" xmlns="http://www.w3.org/2000/svg">
<circle cx="11.8885" cy="12.0901" r="11.7811" fill="#0039A6"/>
<path d="M8.92445 7.51465C9.35982 7.51465 9.75723 7.55342 10.1167 7.63015C10.4761 7.70689 10.7831 7.8329 11.0391 8.00817C11.2952 8.18345 11.4939 8.41608 11.6352 8.70686C11.7766 8.99765 11.8468 9.35628 11.8468 9.78357C11.8468 10.2448 11.7418 10.6293 11.5326 10.937C11.3234 11.2448 11.0133 11.4968 10.6037 11.6931C11.1675 11.8554 11.5884 12.1397 11.8662 12.5452C12.1441 12.9507 12.283 13.4402 12.283 14.0129C12.283 14.4741 12.1934 14.8739 12.014 15.2115C11.8347 15.5492 11.5932 15.8246 11.2895 16.0379C10.9858 16.2519 10.6401 16.4094 10.2516 16.512C9.86062 16.6146 9.45756 16.6663 9.05369 16.6655H4.61841V7.51465H8.92445ZM8.6684 11.2181C9.02703 11.2181 9.32186 11.1325 9.55287 10.9621C9.78388 10.7908 9.89939 10.5138 9.89858 10.1293C9.89858 9.91604 9.85981 9.74076 9.78307 9.60426C9.70634 9.46775 9.60376 9.36032 9.47533 9.28359C9.3469 9.20685 9.19989 9.15354 9.03349 9.12365C8.86225 9.09377 8.68859 9.07842 8.51412 9.07923H6.63129V11.2197L8.6684 11.2181ZM8.7839 15.1009C8.97372 15.1017 9.16273 15.0823 9.3477 15.0435C9.52702 15.0048 9.68534 14.941 9.82184 14.8513C9.95835 14.7616 10.0674 14.6397 10.149 14.4862C10.2298 14.3327 10.2709 14.1356 10.2709 13.8966C10.2709 13.4273 10.1385 13.0912 9.87354 12.8909C9.6086 12.6898 9.25804 12.5896 8.82267 12.5896H6.63129V15.1017L8.7839 15.1009ZM14.8145 14.9086C15.0875 15.1736 15.4808 15.306 15.9938 15.306C16.3613 15.306 16.6771 15.214 16.942 15.0306C17.207 14.8473 17.3693 14.6526 17.4291 14.4474H19.0308C18.7748 15.2422 18.3814 15.8101 17.8516 16.1517C17.3217 16.4934 16.6811 16.6647 15.9291 16.6647C15.4081 16.6647 14.938 16.5815 14.5196 16.4151C14.1012 16.2487 13.7466 16.0112 13.4558 15.7035C13.1651 15.3957 12.9405 15.029 12.783 14.6017C12.6255 14.1744 12.5463 13.7043 12.5463 13.1922C12.5463 12.6971 12.6271 12.2359 12.7895 11.8086C12.9518 11.3813 13.1828 11.0121 13.4817 10.7004C13.7806 10.3886 14.1376 10.143 14.5519 9.9637C14.9663 9.78438 15.4259 9.69472 15.9299 9.69472C16.4937 9.69472 16.9848 9.80377 17.4041 10.0219C17.8225 10.2399 18.1666 10.5323 18.4355 10.8999C18.7045 11.2674 18.8992 11.6858 19.0187 12.1559C19.1383 12.626 19.1811 13.1171 19.1472 13.63H14.367C14.392 14.2172 14.5414 14.6445 14.8145 14.9086ZM16.8718 11.4233C16.6537 11.1842 16.3225 11.0646 15.8783 11.0646C15.5875 11.0646 15.346 11.1139 15.1545 11.2116C14.9623 11.3102 14.8088 11.4313 14.6933 11.5767C14.5778 11.7221 14.497 11.8756 14.4502 12.038C14.4033 12.2003 14.3751 12.3457 14.367 12.4733H17.3273C17.2409 12.0129 17.089 11.6624 16.8718 11.4233ZM14.0552 7.9791H17.7538V9.00492H14.0552V7.9791Z" fill="white"/>
</svg>
