<svg width="25" height="24" viewBox="0 0 25 24" fill="none" xmlns="http://www.w3.org/2000/svg">
<circle cx="12.6553" cy="11.9803" r="11.7811" fill="#FF6319"/>
<path d="M12.6492 11.2585C11.9943 9.9896 10.2179 7.61966 8.56424 6.45311C6.98019 5.33568 6.3744 5.52806 5.98146 5.70816C5.52303 5.91691 5.44116 6.62093 5.44116 7.03434C5.44116 7.44775 5.66629 10.4317 5.81773 10.9269C6.30891 12.5724 8.0485 13.129 9.65302 12.9489C9.73488 12.9367 9.81674 12.9244 9.9027 12.9162C9.82084 12.9285 9.73488 12.9408 9.65302 12.9489C7.30355 13.2969 5.21195 14.1523 7.95436 17.2017C10.9669 20.3207 12.0844 16.5345 12.6574 14.6108C13.2304 16.5305 13.8894 20.1816 17.3031 17.2017C19.8695 14.6108 18.0071 13.2969 15.6577 12.9489C15.5758 12.9408 15.4899 12.9285 15.408 12.9162C15.4939 12.9285 15.5758 12.9367 15.6577 12.9489C17.2622 13.129 19.0059 12.5724 19.493 10.9269C19.6403 10.4276 19.8695 7.44775 19.8695 7.03434C19.8695 6.62093 19.7877 5.91691 19.3292 5.70816C18.9322 5.52806 18.3305 5.33568 16.7465 6.45311C15.0805 7.62375 13.3041 9.9896 12.6492 11.2585Z" fill="white"/>
</svg>
