<svg width="25" height="25" viewBox="0 0 25 25" fill="none" xmlns="http://www.w3.org/2000/svg">
<circle cx="12.6695" cy="12.5772" r="11.7811" fill="#FF6319"/>
<path d="M17.8065 7.69428C16.8342 7.24911 15.8076 6.93329 14.7532 6.75488C14.6089 7.01283 14.4783 7.27822 14.3621 7.54994C13.2389 7.38069 12.0967 7.38069 10.9735 7.54994C10.8571 7.27824 10.7266 7.01286 10.5823 6.75488C9.5272 6.93479 8.5 7.25136 7.52665 7.69661C5.5943 10.5556 5.07046 13.3435 5.33238 16.0919C6.46401 16.928 7.73064 17.5638 9.07719 17.9718C9.38039 17.564 9.64869 17.1314 9.87923 16.6786C9.44135 16.515 9.01871 16.3132 8.61622 16.0756C8.72215 15.9987 8.82575 15.9196 8.92586 15.8428C10.097 16.3935 11.3753 16.6791 12.6695 16.6791C13.9637 16.6791 15.242 16.3935 16.4132 15.8428C16.5144 15.9254 16.618 16.0046 16.7228 16.0756C16.3195 16.3136 15.8961 16.5158 15.4574 16.6797C15.6877 17.1324 15.956 17.5646 16.2595 17.9718C17.6072 17.5655 18.8748 16.9299 20.0066 16.093C20.3139 12.9058 19.4816 10.1435 17.8065 7.69428ZM10.211 14.4016C9.48112 14.4016 8.87813 13.7393 8.87813 12.9244C8.87813 12.1096 9.46017 11.4414 10.2087 11.4414C10.9572 11.4414 11.5555 12.1096 11.5427 12.9244C11.5299 13.7393 10.9548 14.4016 10.211 14.4016ZM15.128 14.4016C14.397 14.4016 13.7963 13.7393 13.7963 12.9244C13.7963 12.1096 14.3784 11.4414 15.128 11.4414C15.8777 11.4414 16.4714 12.1096 16.4585 12.9244C16.4457 13.7393 15.8719 14.4016 15.128 14.4016Z" fill="white"/>
</svg>
