<svg width="24" height="24" viewBox="0 0 24 24" fill="none" xmlns="http://www.w3.org/2000/svg">
<circle cx="12.1693" cy="12.0914" r="11.7811" fill="#0039A6"/>
<path d="M9.97248 18.5293C9.97248 18.7727 10.021 18.8032 10.08 18.9705C10.6371 20.5494 13.7625 20.5317 14.3673 18.9705C14.4319 18.8037 14.4894 18.7727 14.4894 18.5291C14.4894 18.2249 14.5044 17.2356 14.5044 16.0029C14.5044 15.1354 14.2175 14.5876 13.885 14.2985C15.9245 14.0701 18.0544 13.2941 18.0544 9.76327C18.0544 8.75884 17.707 7.93707 17.1178 7.29796C17.2084 7.06973 17.5259 6.126 17.0272 4.8629C17.0272 4.8629 16.2568 4.61936 14.5195 5.80644C13.7943 5.60866 13.0089 5.50201 12.2385 5.50201C11.4681 5.50288 10.7011 5.60523 9.95735 5.80644C8.22024 4.61936 7.44983 4.8629 7.44983 4.8629C6.95117 6.126 7.26848 7.06973 7.35906 7.29796C6.78495 7.93707 6.42262 8.75884 6.42262 9.76327C6.42262 13.2941 8.5525 14.0854 10.5769 14.2985C10.3201 14.5267 10.0782 14.9376 10.0027 15.5312C9.474 15.7747 8.15973 16.1703 7.34412 14.7703C7.34412 14.7703 6.86059 13.8876 5.93908 13.8267C5.93908 13.8267 5.04783 13.8267 5.87857 14.3898C5.87857 14.3898 6.48294 14.6636 6.89084 15.729C6.89084 15.729 7.41939 17.3727 9.95754 16.8247C9.95754 17.5858 9.97248 18.3162 9.97248 18.5293Z" fill="white"/>
</svg>
