<svg width="25" height="25" viewBox="0 0 25 25" fill="none" xmlns="http://www.w3.org/2000/svg">
<circle cx="12.6129" cy="12.44" r="11.7811" fill="#6CBE45"/>
<path d="M11.7279 15.6961L11.178 14.2013C11.178 14.2013 10.2845 15.1979 8.94446 15.1979C7.75876 15.1979 6.91692 14.1669 6.91692 12.5174C6.91692 10.4041 7.9821 9.64806 9.03037 9.64806C10.5423 9.64806 11.0233 10.6274 11.4358 11.8818L11.9857 13.6C12.5354 15.2666 13.5664 16.6067 16.5388 16.6067C18.6696 16.6067 20.1128 15.9539 20.1128 14.2357C20.1128 12.844 19.3223 12.1223 17.8446 11.7786L16.745 11.5381C15.9891 11.3663 15.7657 11.057 15.7657 10.5415C15.7657 9.95731 16.2295 9.61363 16.9856 9.61363C17.8104 9.61363 18.2571 9.92295 18.3258 10.6618L20.044 10.4555C19.9066 8.90917 18.8413 8.27344 17.0887 8.27344C15.5424 8.27344 14.0304 8.85763 14.0304 10.7305C14.0304 11.8989 14.5974 12.6378 16.0234 12.9814L17.1919 13.2562C18.0681 13.4624 18.3601 13.8232 18.3601 14.3216C18.3601 14.9572 17.7416 15.2149 16.5733 15.2149C14.8378 15.2149 14.1163 14.3043 13.7039 13.05L13.1369 11.3319C12.4153 9.09816 11.264 8.27344 8.97876 8.27344C6.45306 8.27344 5.11279 9.87134 5.11279 12.5861C5.11279 15.1978 6.45306 16.6067 8.85863 16.6067C10.7999 16.6067 11.7279 15.6961 11.7279 15.6961Z" fill="white"/>
</svg>
