<svg width="25" height="24" viewBox="0 0 25 24" fill="none" xmlns="http://www.w3.org/2000/svg">
<circle cx="12.7315" cy="12.1292" r="11.7811" fill="#0039A6"/>
<path fill-rule="evenodd" clip-rule="evenodd" d="M19.2314 17.5349H16.5604V12.9854C16.5604 11.7381 16.0864 11.041 15.0991 11.041C14.0251 11.041 13.464 11.7664 13.464 12.9854V17.5349H10.8898V8.86825H13.464V10.0356C13.464 10.0356 14.238 8.60347 16.0771 8.60347C17.9154 8.60347 19.2314 9.72603 19.2314 12.0477V17.5349ZM7.81878 7.73342C6.94196 7.73342 6.23145 7.01733 6.23145 6.13416C6.23145 5.251 6.94196 4.53491 7.81878 4.53491C8.69561 4.53491 9.4057 5.251 9.4057 6.13416C9.4057 7.01733 8.69561 7.73342 7.81878 7.73342ZM6.48958 17.5349H9.1738V8.86825H6.48958V17.5349Z" fill="white"/>
</svg>
