<svg width="24" height="25" viewBox="0 0 24 25" fill="none" xmlns="http://www.w3.org/2000/svg">
<circle cx="11.9079" cy="12.3651" r="11.7811" fill="#FF6319"/>
<path fill-rule="evenodd" clip-rule="evenodd" d="M14.6309 16.252C16.3502 16.0467 17.8473 14.9873 18.0354 14.0193C18.3319 12.4944 18.3074 10.2981 18.3074 10.2981C18.3074 7.32132 16.3571 6.44877 16.3571 6.44877C15.3737 5.99712 13.6851 5.80719 11.9308 5.79285H11.8877C10.1333 5.80719 8.44584 5.99712 7.4624 6.44877C7.4624 6.44877 5.51199 7.32132 5.51199 10.2981C5.51199 10.4786 5.51106 10.6684 5.51009 10.866C5.50739 11.4148 5.5044 12.0236 5.52027 12.6592C5.5911 15.5703 6.05399 18.4394 8.74557 19.1518C9.98659 19.4803 11.0521 19.549 11.9102 19.5019C13.4664 19.4156 14.34 18.9465 14.34 18.9465L14.2887 17.8174C14.2887 17.8174 13.1766 18.1681 11.9277 18.1253C10.6903 18.0829 9.38397 17.9919 9.18384 16.4727C9.16535 16.3392 9.15611 16.1965 9.15611 16.0467C9.15611 16.0467 10.3708 16.3436 11.9102 16.4141C12.8515 16.4573 13.7343 16.3589 14.6309 16.252ZM16.0069 14.1332V10.5288C16.0069 9.79214 15.8193 9.20674 15.4427 8.77365C15.0541 8.34055 14.5453 8.11853 13.9137 8.11853C13.1829 8.11853 12.6295 8.3994 12.2637 8.96121L11.908 9.55748L11.5523 8.96121C11.1864 8.3994 10.633 8.11853 9.90225 8.11853C9.27065 8.11853 8.76185 8.34055 8.37333 8.77365C7.99657 9.20674 7.80901 9.79214 7.80901 10.5288V14.1332H9.23701V10.6347C9.23701 9.89727 9.5473 9.52295 10.168 9.52295C10.8542 9.52295 11.1982 9.96699 11.1982 10.845V12.7599H12.6178V10.845C12.6178 9.96699 12.9617 9.52295 13.648 9.52295C14.2686 9.52295 14.5789 9.89727 14.5789 10.6347V14.1332H16.0069Z" fill="white"/>
</svg>
