<svg width="24" height="24" viewBox="0 0 24 24" fill="none" xmlns="http://www.w3.org/2000/svg">
<circle cx="12.2222" cy="11.7861" r="11.7811" fill="#6CBE45"/>
<circle cx="12.2622" cy="11.7891" r="7.38819" stroke="white"/>
<path d="M15.0178 13.4163C15.0178 13.9851 14.5566 14.4462 13.9878 14.4462C13.4189 14.4462 12.9578 13.9851 12.9578 13.4163C12.9578 12.8475 13.4189 12.3864 13.9878 12.3864C14.5566 12.3864 15.0178 12.8475 15.0178 13.4163Z" stroke="white"/>
<circle cx="12.2622" cy="11.7891" r="7.38819" stroke="white"/>
<circle cx="12.2622" cy="11.7891" r="7.38819" stroke="white"/>
<path d="M9.77905 4.87756C11.6044 5.12703 12.1673 7.28082 13.9765 8.09603C15.9934 9.0048 19.1987 8.49983 19.1987 8.49983" stroke="white"/>
<path d="M4.86437 13.5666C4.86437 13.5666 9.04018 9.90076 12.2517 9.82362C14.1423 9.77822 14.8347 11.305 16.9008 11.3453C18.5 11.3766 19.6033 10.859 19.6033 10.859" stroke="white"/>
<path d="M5.88721 16.3053C5.88721 16.3053 7.59488 14.8243 9.73827 14.6421C11.7202 14.4737 12.213 16.1329 14.3305 16.1329C16.4479 16.1329 19.4678 13.5871 19.4678 13.5871" stroke="white"/>
</svg>
