<svg width="25" height="24" viewBox="0 0 25 24" fill="none" xmlns="http://www.w3.org/2000/svg">
<circle cx="12.3135" cy="11.8536" r="11.7811" fill="#FF6319"/>
<g clip-path="url(#clip0_132_247)">
<path d="M19.3135 7.65563C18.7984 7.87653 18.2448 8.02576 17.6639 8.0929C18.2568 7.74923 18.7123 7.20504 18.9267 6.55655C18.3717 6.87484 17.757 7.10589 17.1027 7.23042C16.5789 6.69069 15.8324 6.35352 15.0062 6.35352C13.42 6.35352 12.1339 7.59682 12.1339 9.1304C12.1339 9.34805 12.1593 9.56002 12.2083 9.76326C9.82118 9.64746 7.7048 8.54187 6.28813 6.86177C6.04089 7.2719 5.89921 7.7489 5.89921 8.25783C5.89921 9.22129 6.40629 10.0713 7.177 10.5692C6.70618 10.5548 6.26328 10.4299 5.87604 10.2219C5.87572 10.2335 5.87572 10.2451 5.87572 10.2568C5.87572 11.6023 6.8658 12.7246 8.17977 12.9798C7.93876 13.0433 7.68501 13.0772 7.42307 13.0772C7.23799 13.0772 7.05809 13.0598 6.88267 13.0274C7.24821 14.1306 8.30892 14.9335 9.56584 14.9558C8.58283 15.7007 7.34439 16.1447 5.99864 16.1447C5.7668 16.1447 5.53818 16.1315 5.31348 16.1058C6.58461 16.8938 8.09437 17.3535 9.71641 17.3535C14.9995 17.3535 17.8886 13.1221 17.8886 9.45234C17.8886 9.33194 17.8858 9.21222 17.8803 9.09304C18.4414 8.70159 18.9284 8.21255 19.3135 7.65563Z" fill="white"/>
</g>
<defs>
<clipPath id="clip0_132_247">
<rect width="14" height="11" fill="white" transform="translate(6 6.35352)"/>
</clipPath>
</defs>
</svg>
