<svg width="1862" height="956" viewBox="0 0 1862 956" fill="none" xmlns="http://www.w3.org/2000/svg">
<path d="M0.902832 532.651V39.0096C0.902832 18.4685 18.4653 2.31807 38.9344 4.0357C57.1162 5.56138 71.0964 20.7639 71.0964 39.0096V506.741C71.0964 517.35 75.3107 527.524 82.8122 535.025L141.486 593.699L429.121 881.334C436.622 888.835 446.797 893.05 457.405 893.05H1723.02H1830.51C1847.88 893.05 1861.96 907.129 1861.96 924.497C1861.96 941.866 1847.88 955.945 1830.51 955.945H424.196C413.588 955.945 403.414 951.731 395.912 944.229L12.6186 560.936C5.1171 553.434 0.902832 543.26 0.902832 532.651Z" fill="#B5D5F1"/>
<path d="M229.778 719.733L238.298 728.252L236.057 730.492L230.203 724.638L227.402 727.438L232.477 732.512L230.406 734.582L225.332 729.508L220.326 734.514L217.661 731.85L229.778 719.733ZM236.24 732.881L238.531 735.172L236.902 736.802L236.936 736.836C237.321 736.677 237.722 736.581 238.141 736.547C238.571 736.502 238.99 736.524 239.397 736.615C239.815 736.694 240.211 736.83 240.585 737.022C240.958 737.215 241.298 737.463 241.603 737.769C241.761 737.927 241.908 738.131 242.044 738.38L239.804 740.62C239.714 740.484 239.595 740.332 239.448 740.162C239.312 739.981 239.171 739.817 239.023 739.67C238.582 739.228 238.135 738.929 237.683 738.77C237.23 738.612 236.778 738.567 236.325 738.634C235.895 738.702 235.471 738.866 235.052 739.127C234.634 739.387 234.226 739.715 233.83 740.111L229.876 744.065L227.467 741.655L236.24 732.881ZM240.036 742.074C240.636 741.542 241.247 741.214 241.869 741.09C242.491 740.965 243.108 740.982 243.719 741.141C244.33 741.299 244.918 741.57 245.484 741.955C246.072 742.34 246.609 742.775 247.096 743.262C247.537 743.703 247.95 744.184 248.335 744.704C248.731 745.213 249.025 745.745 249.217 746.3C249.41 746.854 249.46 747.414 249.37 747.98C249.291 748.534 248.985 749.077 248.454 749.609L243.888 754.174C243.492 754.57 243.136 754.972 242.819 755.379C242.503 755.786 242.31 756.137 242.242 756.431L239.799 753.987C239.889 753.806 239.985 753.631 240.087 753.461C240.212 753.291 240.342 753.127 240.477 752.969C239.697 752.98 238.967 752.805 238.288 752.443C237.609 752.081 236.998 751.628 236.455 751.085C236.037 750.667 235.697 750.225 235.437 749.762C235.177 749.298 235.019 748.823 234.962 748.336C234.905 747.85 234.962 747.363 235.132 746.877C235.313 746.401 235.629 745.938 236.082 745.485C236.58 744.987 237.072 744.665 237.558 744.518C238.068 744.371 238.554 744.337 239.018 744.416C239.493 744.506 239.951 744.682 240.393 744.942C240.856 745.202 241.298 745.485 241.716 745.79C242.135 746.096 242.536 746.407 242.921 746.724C243.306 747.041 243.668 747.301 244.007 747.504C244.347 747.708 244.658 747.827 244.941 747.861C245.235 747.883 245.501 747.765 245.738 747.504C245.998 747.244 246.157 746.995 246.213 746.758C246.293 746.52 246.298 746.288 246.23 746.062C246.185 745.836 246.078 745.615 245.908 745.4C245.761 745.185 245.58 744.97 245.365 744.755C244.89 744.28 244.415 744.009 243.939 743.941C243.464 743.873 242.966 744.054 242.446 744.484L240.036 742.074ZM243.821 749.422C243.628 749.411 243.425 749.354 243.21 749.252C243.017 749.151 242.814 749.026 242.599 748.879C242.395 748.743 242.186 748.591 241.971 748.421C241.756 748.251 241.535 748.087 241.309 747.929C241.094 747.782 240.868 747.646 240.63 747.521C240.404 747.408 240.172 747.335 239.934 747.301C239.719 747.267 239.499 747.284 239.272 747.352C239.046 747.42 238.82 747.567 238.594 747.793C238.379 748.008 238.237 748.229 238.169 748.455C238.102 748.681 238.09 748.907 238.135 749.134C238.192 749.349 238.294 749.564 238.441 749.779C238.588 749.994 238.758 750.197 238.95 750.389C239.425 750.865 239.872 751.153 240.291 751.255C240.709 751.357 241.088 751.362 241.428 751.272C241.778 751.17 242.078 751.017 242.327 750.814C242.587 750.621 242.785 750.457 242.921 750.322L243.821 749.422ZM248.525 757.012C248.265 757.272 248.09 757.549 247.999 757.843C247.931 758.137 247.92 758.432 247.965 758.726C248.022 759.009 248.129 759.286 248.288 759.557C248.457 759.84 248.661 760.1 248.898 760.338C249.068 760.508 249.261 760.666 249.475 760.813C249.713 760.96 249.945 761.068 250.171 761.136C250.42 761.203 250.663 761.22 250.901 761.186C251.15 761.141 251.382 761.011 251.597 760.796C251.959 760.434 251.987 759.919 251.682 759.252C251.388 758.596 250.901 757.747 250.222 756.706C249.951 756.276 249.696 755.841 249.459 755.4C249.244 754.958 249.091 754.523 249 754.093C248.921 753.652 248.932 753.222 249.034 752.803C249.147 752.373 249.396 751.966 249.781 751.581C250.347 751.015 250.918 750.659 251.495 750.512C252.083 750.376 252.66 750.388 253.226 750.546C253.803 750.693 254.357 750.953 254.889 751.327C255.432 751.689 255.941 752.107 256.416 752.582C256.892 753.058 257.305 753.561 257.655 754.093C258.017 754.636 258.266 755.19 258.402 755.756C258.538 756.322 258.538 756.899 258.402 757.487C258.289 758.075 257.983 758.664 257.486 759.252L255.195 756.961C255.624 756.463 255.76 755.977 255.602 755.501C255.455 755.015 255.166 754.557 254.736 754.127C254.601 753.991 254.442 753.855 254.261 753.719C254.091 753.572 253.91 753.459 253.718 753.38C253.537 753.312 253.345 753.29 253.141 753.312C252.949 753.323 252.762 753.42 252.581 753.601C252.366 753.816 252.27 754.07 252.293 754.364C252.315 754.658 252.406 754.975 252.564 755.315C252.745 755.654 252.966 756.022 253.226 756.418C253.486 756.814 253.746 757.221 254.007 757.64C254.278 758.07 254.521 758.505 254.736 758.946C254.963 759.399 255.11 759.851 255.178 760.304C255.257 760.745 255.234 761.186 255.11 761.628C254.997 762.058 254.736 762.476 254.329 762.884C253.752 763.461 253.147 763.828 252.513 763.987C251.902 764.145 251.291 764.156 250.68 764.021C250.069 763.885 249.475 763.619 248.898 763.223C248.321 762.85 247.784 762.414 247.286 761.916C246.777 761.407 246.33 760.858 245.946 760.27C245.561 759.682 245.295 759.076 245.148 758.454C245.012 757.843 245.012 757.221 245.148 756.587C245.306 755.954 245.668 755.332 246.234 754.721L248.525 757.012ZM264.157 767.688C264.655 766.964 264.915 766.296 264.938 765.686C264.971 765.086 264.694 764.492 264.106 763.904C263.721 763.519 263.331 763.264 262.935 763.14C262.562 763.015 262.2 762.97 261.849 763.004C261.509 763.049 261.198 763.146 260.916 763.293C260.644 763.451 260.418 763.609 260.237 763.768L264.157 767.688ZM258.709 765.295C257.963 766.11 257.595 766.873 257.606 767.586C257.618 768.299 257.963 768.995 258.641 769.674C259.128 770.16 259.665 770.46 260.254 770.573C260.853 770.675 261.328 770.63 261.679 770.437L263.801 772.559C262.409 773.271 261.136 773.503 259.982 773.254C258.828 773.005 257.753 772.383 256.758 771.388C256.068 770.698 255.553 769.968 255.213 769.198C254.885 768.418 254.733 767.631 254.755 766.84C254.778 766.048 254.964 765.261 255.315 764.481C255.677 763.711 256.198 762.987 256.877 762.308C257.533 761.652 258.251 761.149 259.032 760.798C259.812 760.447 260.604 760.266 261.408 760.255C262.222 760.232 263.02 760.374 263.801 760.679C264.592 760.996 265.322 761.488 265.99 762.156C266.736 762.902 267.24 763.7 267.5 764.549C267.772 765.386 267.839 766.223 267.704 767.06C267.579 767.909 267.285 768.723 266.821 769.504C266.357 770.285 265.763 770.992 265.039 771.625L258.709 765.295ZM271.441 768.082L273.732 770.373L272.103 772.002L272.137 772.036C272.521 771.878 272.923 771.782 273.342 771.748C273.772 771.702 274.19 771.725 274.597 771.816C275.016 771.895 275.412 772.031 275.785 772.223C276.159 772.415 276.498 772.664 276.804 772.97C276.962 773.128 277.109 773.332 277.245 773.581L275.005 775.821C274.914 775.685 274.795 775.532 274.648 775.362C274.513 775.181 274.371 775.017 274.224 774.87C273.783 774.429 273.336 774.129 272.883 773.971C272.431 773.812 271.978 773.767 271.526 773.835C271.096 773.903 270.672 774.067 270.253 774.327C269.834 774.587 269.427 774.916 269.031 775.312L265.077 779.266L262.667 776.856L271.441 768.082ZM283.541 784.459L286.46 787.377C287.071 787.988 287.665 788.311 288.242 788.345C288.819 788.379 289.413 788.09 290.024 787.479C290.612 786.891 290.883 786.314 290.838 785.748C290.804 785.171 290.482 784.577 289.871 783.966L286.952 781.047L283.541 784.459ZM286.358 776.313L292.892 782.846C293.435 783.389 293.831 783.966 294.08 784.577C294.351 785.188 294.487 785.799 294.487 786.41C294.498 787.032 294.379 787.626 294.13 788.192C293.904 788.758 293.559 789.273 293.095 789.736C292.383 790.449 291.613 790.913 290.787 791.128C289.973 791.354 289.09 791.264 288.14 790.856L288.106 790.89C288.344 791.309 288.474 791.722 288.496 792.129C288.53 792.525 288.485 792.921 288.36 793.317C288.247 793.702 288.066 794.075 287.817 794.437C287.58 794.811 287.32 795.161 287.037 795.489C286.856 795.693 286.641 795.931 286.392 796.202C286.143 796.474 285.894 796.757 285.645 797.051C285.408 797.356 285.193 797.662 285 797.967C284.831 798.273 284.723 798.572 284.678 798.867L282.013 796.202C282.251 795.67 282.619 795.122 283.117 794.556C283.614 793.99 284.073 793.43 284.491 792.876C285.034 792.152 285.306 791.496 285.306 790.907C285.306 790.319 284.972 789.691 284.305 789.024L281.64 786.359L276.905 791.094L274.241 788.43L286.358 776.313ZM298.843 792.769L296.433 790.359L298.419 788.373L300.828 790.783L298.843 792.769ZM295.075 791.717L297.485 794.126L288.711 802.9L286.302 800.49L295.075 791.717ZM295.463 809.651L292.781 806.97L298.551 795.192L301.08 797.721L296.939 805.561L296.973 805.595L304.813 801.454L307.206 803.847L295.463 809.651ZM310.66 814.191C311.158 813.467 311.418 812.8 311.441 812.189C311.475 811.589 311.198 810.995 310.609 810.407C310.225 810.022 309.834 809.768 309.438 809.643C309.065 809.519 308.703 809.474 308.352 809.507C308.013 809.553 307.702 809.649 307.419 809.796C307.147 809.954 306.921 810.113 306.74 810.271L310.66 814.191ZM305.213 811.799C304.466 812.613 304.098 813.377 304.11 814.09C304.121 814.802 304.466 815.498 305.145 816.177C305.631 816.663 306.169 816.963 306.757 817.076C307.357 817.178 307.832 817.133 308.182 816.941L310.304 819.062C308.912 819.775 307.639 820.007 306.485 819.758C305.331 819.509 304.257 818.887 303.261 817.891C302.571 817.201 302.056 816.471 301.717 815.702C301.389 814.921 301.236 814.135 301.259 813.343C301.281 812.551 301.468 811.765 301.819 810.984C302.181 810.215 302.701 809.491 303.38 808.812C304.036 808.156 304.754 807.652 305.535 807.301C306.316 806.951 307.108 806.77 307.911 806.758C308.726 806.736 309.523 806.877 310.304 807.183C311.096 807.499 311.826 807.991 312.493 808.659C313.24 809.406 313.743 810.203 314.003 811.052C314.275 811.889 314.343 812.726 314.207 813.563C314.083 814.412 313.788 815.227 313.325 816.007C312.861 816.788 312.267 817.495 311.543 818.129L305.213 811.799ZM317.944 814.585L320.235 816.876L318.606 818.506L318.64 818.54C319.025 818.381 319.426 818.285 319.845 818.251C320.275 818.206 320.694 818.228 321.101 818.319C321.519 818.398 321.915 818.534 322.289 818.726C322.662 818.919 323.002 819.167 323.307 819.473C323.465 819.631 323.612 819.835 323.748 820.084L321.508 822.324C321.418 822.188 321.299 822.035 321.152 821.866C321.016 821.685 320.875 821.521 320.727 821.374C320.286 820.932 319.839 820.633 319.387 820.474C318.934 820.316 318.482 820.271 318.029 820.338C317.599 820.406 317.175 820.57 316.756 820.831C316.338 821.091 315.93 821.419 315.534 821.815L311.58 825.769L309.17 823.359L317.944 814.585Z" fill="#62AEC4"/>
</svg>
