<svg width="32" height="33" viewBox="0 0 32 33" fill="none" xmlns="http://www.w3.org/2000/svg">
<ellipse cx="16.206" cy="16.3865" rx="15.7456" ry="15.7457" fill="#FFB50A"/>
<path d="M10.3472 9.09109C10.3472 7.76929 11.4188 6.69775 12.7406 6.69775H19.4704C20.7922 6.69775 21.8637 7.76929 21.8637 9.09109V18.7582V18.978C21.8637 20.2998 20.7922 21.3713 19.4704 21.3713H16.1055H12.7406C11.4188 21.3713 10.3472 20.2998 10.3472 18.978V18.7582V12.728V9.09109Z" fill="white"/>
<path d="M11.8766 9.47083C11.8766 8.77515 12.4406 8.21118 13.1362 8.21118H19.2757C19.9714 8.21118 20.5354 8.77515 20.5354 9.47083V12.0163C20.5354 12.712 19.9714 13.2759 19.2757 13.2759H16.206H13.1362C12.4406 13.2759 11.8766 12.712 11.8766 12.0163V9.47083Z" fill="#FFB50A"/>
<path d="M12.5155 19.509H19.6955V22.8072H16.1055H12.5155V19.509Z" fill="white"/>
<ellipse cx="13.1453" cy="18.822" rx="1.19371" ry="1.19372" fill="#FFB50A"/>
<ellipse cx="19.2816" cy="18.822" rx="1.19371" ry="1.19372" fill="#FFB50A"/>
<path fill-rule="evenodd" clip-rule="evenodd" d="M19.3099 21.7624L22.2759 26.385C22.3297 26.4689 22.2695 26.579 22.1698 26.579H20.7609C20.7175 26.579 20.6772 26.5567 20.6541 26.5199L18.1384 22.5024L19.3099 21.7624Z" fill="white"/>
<path fill-rule="evenodd" clip-rule="evenodd" d="M13.118 21.7512L10.1365 26.385C10.0826 26.4688 10.1428 26.5791 10.2425 26.5791H11.6512C11.6945 26.5791 11.7348 26.5568 11.7578 26.5201L14.2896 22.4911L13.118 21.7512Z" fill="white"/>
</svg>
