<svg width="32" height="33" viewBox="0 0 32 33" fill="none" xmlns="http://www.w3.org/2000/svg">
<g id="Train Logo">
<ellipse id="Ellipse 1" cx="16.206" cy="16.5118" rx="15.7456" ry="15.7457" fill="#FF6571"/>
<g id="Group 2">
<path id="Rectangle 2" d="M10.3472 9.21634C10.3472 7.89453 11.4188 6.823 12.7406 6.823H19.4704C20.7922 6.823 21.8637 7.89453 21.8637 9.21634V18.8835L21.8637 19.1032C21.8637 20.425 20.7922 21.4966 19.4704 21.4966H16.1055H12.7406C11.4188 21.4966 10.3472 20.425 10.3472 19.1032V18.8835V12.8532V9.21634Z" fill="white"/>
<path id="Rectangle 3" d="M11.8766 9.59608C11.8766 8.90039 12.4406 8.33643 13.1362 8.33643H19.2757C19.9714 8.33643 20.5354 8.90039 20.5354 9.59608V12.1415C20.5354 12.8372 19.9714 13.4012 19.2757 13.4012H16.206H13.1362C12.4406 13.4012 11.8766 12.8372 11.8766 12.1415V9.59608Z" fill="#FF6571"/>
<path id="Rectangle 4" d="M12.5155 19.6343H19.6955V22.9325H16.1055H12.5155V19.6343Z" fill="white"/>
<ellipse id="Ellipse 2" cx="13.1453" cy="18.9473" rx="1.19371" ry="1.19372" fill="#FF6571"/>
<ellipse id="Ellipse 3" cx="19.2816" cy="18.9473" rx="1.19371" ry="1.19372" fill="#FF6571"/>
<path id="Vector 2 (Stroke)" fill-rule="evenodd" clip-rule="evenodd" d="M19.3099 21.8877L22.2759 26.5103C22.3297 26.5941 22.2695 26.7042 22.1698 26.7042H20.7609C20.7175 26.7042 20.6772 26.6819 20.6541 26.6451L18.1384 22.6276L19.3099 21.8877Z" fill="white"/>
<path id="Vector 2 (Stroke)_2" fill-rule="evenodd" clip-rule="evenodd" d="M13.118 21.8765L10.1365 26.5102C10.0826 26.594 10.1428 26.7043 10.2425 26.7043H11.6512C11.6945 26.7043 11.7348 26.6821 11.7578 26.6454L14.2896 22.6164L13.118 21.8765Z" fill="white"/>
</g>
</g>
</svg>
