<svg width="32" height="32" viewBox="0 0 32 32" fill="none" xmlns="http://www.w3.org/2000/svg">
<ellipse cx="16.206" cy="16.2618" rx="15.7456" ry="15.7457" fill="#FED20A"/>
<path d="M10.3472 8.96634C10.3472 7.64453 11.4188 6.573 12.7406 6.573H19.4704C20.7922 6.573 21.8637 7.64453 21.8637 8.96634V18.6335V18.8532C21.8637 20.175 20.7922 21.2466 19.4704 21.2466H16.1055H12.7406C11.4188 21.2466 10.3472 20.175 10.3472 18.8532V18.6335V12.6032V8.96634Z" fill="white"/>
<path d="M11.8766 9.34608C11.8766 8.65039 12.4405 8.08643 13.1362 8.08643H19.2757C19.9714 8.08643 20.5354 8.65039 20.5354 9.34608V11.8915C20.5354 12.5872 19.9714 13.1512 19.2757 13.1512H16.206H13.1362C12.4405 13.1512 11.8766 12.5872 11.8766 11.8915V9.34608Z" fill="#FED20A"/>
<path d="M12.5155 19.3843H19.6955V22.6825H16.1055H12.5155V19.3843Z" fill="white"/>
<ellipse cx="13.1453" cy="18.6973" rx="1.19371" ry="1.19372" fill="#FED20A"/>
<ellipse cx="19.2816" cy="18.6973" rx="1.19371" ry="1.19372" fill="#FED20A"/>
<path fill-rule="evenodd" clip-rule="evenodd" d="M19.3099 21.6377L22.2759 26.2603C22.3297 26.3441 22.2694 26.4542 22.1698 26.4542H20.7609C20.7175 26.4542 20.6772 26.4319 20.6541 26.3951L18.1384 22.3776L19.3099 21.6377Z" fill="white"/>
<path fill-rule="evenodd" clip-rule="evenodd" d="M13.118 21.6265L10.1365 26.2602C10.0826 26.344 10.1428 26.4543 10.2425 26.4543H11.6512C11.6945 26.4543 11.7348 26.4321 11.7578 26.3954L14.2895 22.3664L13.118 21.6265Z" fill="white"/>
</svg>
