<svg width="801" height="503" viewBox="0 0 801 503" fill="none" xmlns="http://www.w3.org/2000/svg">
<path d="M460.693 494.252L17.9203 51.4785C8.45896 42.0172 8.45897 26.6774 17.9203 17.2161C27.3816 7.75475 42.7214 7.75475 52.1827 17.216L279.276 244.309L484.372 449.405C489.721 454.753 496.975 457.758 504.54 457.758H701.064H777.711C790.095 457.758 800.134 467.798 800.134 480.182C800.134 492.566 790.095 502.606 777.711 502.606H480.86C473.296 502.606 466.041 499.601 460.693 494.252Z" fill="#B5D5F1"/>
<path d="M369.05 358.979L375.125 365.053L373.527 366.651L369.353 362.476L367.356 364.473L370.974 368.091L369.498 369.567L365.88 365.949L362.31 369.519L360.41 367.619L369.05 358.979ZM373.658 368.354L375.291 369.988L374.13 371.149L374.154 371.174C374.428 371.061 374.715 370.992 375.013 370.968C375.32 370.936 375.618 370.952 375.909 371.016C376.207 371.073 376.489 371.17 376.756 371.307C377.022 371.444 377.264 371.621 377.482 371.839C377.595 371.952 377.7 372.097 377.796 372.275L376.199 373.872C376.134 373.775 376.05 373.666 375.945 373.545C375.848 373.416 375.747 373.299 375.642 373.194C375.328 372.88 375.009 372.666 374.686 372.553C374.364 372.44 374.041 372.408 373.718 372.456C373.412 372.505 373.109 372.622 372.811 372.807C372.512 372.993 372.222 373.227 371.94 373.509L369.12 376.329L367.402 374.61L373.658 368.354ZM376.364 374.909C376.792 374.53 377.228 374.296 377.671 374.207C378.115 374.118 378.555 374.13 378.99 374.243C379.426 374.356 379.845 374.55 380.249 374.824C380.668 375.098 381.051 375.409 381.398 375.756C381.713 376.07 382.007 376.413 382.282 376.784C382.564 377.147 382.774 377.527 382.911 377.922C383.048 378.317 383.084 378.717 383.02 379.12C382.963 379.515 382.746 379.902 382.366 380.282L379.111 383.537C378.829 383.819 378.575 384.105 378.349 384.396C378.123 384.686 377.986 384.936 377.938 385.146L376.195 383.404C376.26 383.274 376.328 383.149 376.401 383.028C376.489 382.907 376.582 382.79 376.679 382.677C376.122 382.686 375.602 382.561 375.118 382.302C374.634 382.044 374.198 381.722 373.811 381.334C373.513 381.036 373.271 380.721 373.085 380.39C372.9 380.06 372.787 379.721 372.746 379.374C372.706 379.027 372.746 378.68 372.867 378.333C372.996 377.995 373.222 377.664 373.545 377.341C373.9 376.986 374.251 376.756 374.598 376.651C374.961 376.546 375.308 376.522 375.638 376.579C375.977 376.643 376.304 376.768 376.619 376.954C376.949 377.139 377.264 377.341 377.562 377.559C377.861 377.777 378.147 377.999 378.422 378.224C378.696 378.45 378.954 378.636 379.196 378.781C379.438 378.926 379.66 379.011 379.862 379.035C380.071 379.051 380.261 378.967 380.43 378.781C380.616 378.596 380.729 378.418 380.769 378.249C380.826 378.079 380.83 377.914 380.781 377.752C380.749 377.591 380.672 377.434 380.551 377.281C380.446 377.127 380.317 376.974 380.164 376.821C379.825 376.482 379.486 376.288 379.148 376.24C378.809 376.192 378.454 376.321 378.083 376.627L376.364 374.909ZM379.063 380.148C378.926 380.14 378.781 380.1 378.627 380.027C378.49 379.955 378.345 379.866 378.192 379.761C378.046 379.664 377.897 379.556 377.744 379.434C377.591 379.313 377.433 379.197 377.272 379.084C377.119 378.979 376.957 378.882 376.788 378.793C376.627 378.712 376.461 378.66 376.292 378.636C376.139 378.612 375.981 378.624 375.82 378.672C375.659 378.721 375.497 378.825 375.336 378.987C375.183 379.14 375.082 379.297 375.033 379.459C374.985 379.62 374.977 379.781 375.009 379.943C375.05 380.096 375.122 380.249 375.227 380.403C375.332 380.556 375.453 380.701 375.59 380.838C375.929 381.177 376.247 381.383 376.546 381.455C376.844 381.528 377.115 381.532 377.357 381.467C377.607 381.395 377.821 381.286 377.998 381.141C378.184 381.004 378.325 380.887 378.422 380.79L379.063 380.148ZM382.417 385.56C382.232 385.746 382.107 385.943 382.042 386.153C381.994 386.363 381.986 386.573 382.018 386.782C382.058 386.984 382.135 387.182 382.248 387.375C382.369 387.577 382.514 387.762 382.684 387.932C382.805 388.053 382.942 388.166 383.095 388.271C383.265 388.376 383.43 388.452 383.591 388.501C383.769 388.549 383.942 388.561 384.112 388.537C384.289 388.505 384.454 388.412 384.608 388.259C384.866 388 384.886 387.633 384.668 387.157C384.458 386.69 384.112 386.084 383.628 385.342C383.434 385.036 383.252 384.725 383.083 384.411C382.93 384.096 382.821 383.785 382.756 383.479C382.7 383.164 382.708 382.858 382.78 382.559C382.861 382.253 383.039 381.962 383.313 381.688C383.716 381.285 384.124 381.03 384.535 380.926C384.955 380.829 385.366 380.837 385.769 380.95C386.181 381.055 386.576 381.24 386.955 381.506C387.342 381.765 387.705 382.063 388.044 382.402C388.383 382.741 388.678 383.1 388.928 383.479C389.186 383.866 389.363 384.261 389.46 384.665C389.557 385.068 389.557 385.479 389.46 385.899C389.379 386.318 389.162 386.738 388.807 387.157L387.173 385.524C387.48 385.169 387.576 384.822 387.463 384.483C387.359 384.136 387.153 383.81 386.846 383.503C386.75 383.406 386.637 383.309 386.508 383.213C386.386 383.108 386.257 383.027 386.12 382.971C385.991 382.922 385.854 382.906 385.709 382.922C385.572 382.93 385.439 382.999 385.31 383.128C385.156 383.281 385.088 383.463 385.104 383.672C385.12 383.882 385.184 384.108 385.297 384.35C385.427 384.592 385.584 384.854 385.769 385.137C385.955 385.419 386.14 385.709 386.326 386.008C386.52 386.314 386.693 386.625 386.846 386.94C387.008 387.262 387.113 387.585 387.161 387.908C387.217 388.222 387.201 388.537 387.113 388.851C387.032 389.158 386.846 389.457 386.556 389.747C386.144 390.158 385.713 390.421 385.261 390.533C384.826 390.646 384.39 390.654 383.954 390.558C383.519 390.461 383.095 390.271 382.684 389.989C382.272 389.723 381.889 389.412 381.534 389.057C381.171 388.694 380.852 388.303 380.578 387.883C380.304 387.464 380.114 387.032 380.009 386.589C379.913 386.153 379.913 385.709 380.009 385.258C380.122 384.806 380.381 384.362 380.784 383.927L382.417 385.56ZM393.564 393.173C393.918 392.656 394.104 392.181 394.12 391.745C394.144 391.317 393.947 390.894 393.527 390.474C393.253 390.2 392.975 390.019 392.692 389.93C392.426 389.841 392.168 389.809 391.918 389.833C391.676 389.865 391.454 389.934 391.252 390.039C391.059 390.152 390.897 390.265 390.768 390.378L393.564 393.173ZM389.679 391.467C389.147 392.047 388.885 392.592 388.893 393.1C388.901 393.608 389.147 394.105 389.631 394.589C389.978 394.935 390.361 395.149 390.78 395.23C391.208 395.302 391.547 395.27 391.797 395.133L393.309 396.646C392.317 397.154 391.41 397.319 390.587 397.142C389.764 396.964 388.998 396.521 388.288 395.811C387.796 395.319 387.428 394.798 387.186 394.25C386.953 393.693 386.844 393.132 386.86 392.568C386.876 392.003 387.009 391.442 387.259 390.886C387.517 390.337 387.888 389.821 388.372 389.337C388.84 388.869 389.352 388.51 389.909 388.26C390.466 388.01 391.03 387.881 391.603 387.873C392.184 387.857 392.753 387.957 393.309 388.175C393.874 388.401 394.394 388.752 394.87 389.228C395.403 389.76 395.762 390.329 395.947 390.934C396.141 391.531 396.189 392.128 396.093 392.725C396.004 393.33 395.794 393.911 395.463 394.468C395.133 395.024 394.709 395.528 394.193 395.98L389.679 391.467ZM398.757 393.454L400.391 395.087L399.229 396.249L399.254 396.273C399.528 396.16 399.814 396.092 400.113 396.067C400.419 396.035 400.718 396.051 401.008 396.116C401.307 396.172 401.589 396.269 401.855 396.406C402.121 396.543 402.363 396.721 402.581 396.939C402.694 397.052 402.799 397.197 402.896 397.374L401.299 398.972C401.234 398.875 401.149 398.766 401.044 398.645C400.948 398.516 400.847 398.399 400.742 398.294C400.427 397.979 400.109 397.766 399.786 397.653C399.463 397.54 399.141 397.507 398.818 397.556C398.511 397.604 398.209 397.721 397.91 397.907C397.612 398.092 397.321 398.326 397.039 398.609L394.22 401.428L392.501 399.71L398.757 393.454ZM407.385 405.131L409.466 407.212C409.902 407.648 410.326 407.878 410.737 407.902C411.148 407.926 411.572 407.72 412.008 407.285C412.427 406.865 412.621 406.454 412.588 406.05C412.564 405.639 412.334 405.216 411.899 404.78L409.817 402.699L407.385 405.131ZM409.394 399.322L414.053 403.981C414.44 404.368 414.722 404.78 414.9 405.216C415.093 405.651 415.19 406.087 415.19 406.522C415.198 406.966 415.113 407.39 414.936 407.793C414.775 408.196 414.529 408.563 414.198 408.894C413.69 409.402 413.141 409.733 412.552 409.886C411.971 410.048 411.342 409.983 410.664 409.693L410.64 409.717C410.81 410.015 410.902 410.31 410.919 410.6C410.943 410.883 410.91 411.165 410.822 411.447C410.741 411.722 410.612 411.988 410.435 412.246C410.265 412.512 410.08 412.762 409.878 412.996C409.749 413.141 409.596 413.311 409.418 413.505C409.241 413.698 409.063 413.9 408.886 414.11C408.716 414.327 408.563 414.545 408.426 414.763C408.305 414.981 408.228 415.195 408.196 415.404L406.296 413.505C406.465 413.125 406.728 412.734 407.083 412.331C407.438 411.927 407.764 411.528 408.063 411.133C408.45 410.616 408.644 410.149 408.644 409.729C408.644 409.31 408.406 408.862 407.93 408.386L406.03 406.486L402.654 409.862L400.754 407.962L409.394 399.322ZM418.296 411.056L416.578 409.338L417.994 407.922L419.712 409.641L418.296 411.056ZM415.61 410.306L417.328 412.024L411.072 418.28L409.354 416.562L415.61 410.306ZM415.886 423.094L413.974 421.182L418.088 412.784L419.891 414.587L416.939 420.178L416.963 420.202L422.553 417.25L424.259 418.956L415.886 423.094ZM426.722 426.332C427.077 425.815 427.263 425.339 427.279 424.904C427.303 424.476 427.106 424.053 426.686 423.633C426.412 423.359 426.133 423.177 425.851 423.089C425.585 423 425.327 422.968 425.077 422.992C424.835 423.024 424.613 423.093 424.411 423.197C424.218 423.31 424.056 423.423 423.927 423.536L426.722 426.332ZM422.838 424.625C422.306 425.206 422.043 425.751 422.051 426.259C422.06 426.767 422.306 427.263 422.79 427.747C423.137 428.094 423.52 428.308 423.939 428.389C424.367 428.461 424.706 428.429 424.956 428.292L426.468 429.804C425.476 430.313 424.568 430.478 423.746 430.301C422.923 430.123 422.156 429.679 421.446 428.97C420.954 428.477 420.587 427.957 420.345 427.409C420.111 426.852 420.002 426.291 420.019 425.727C420.035 425.162 420.168 424.601 420.418 424.045C420.676 423.496 421.047 422.98 421.531 422.496C421.999 422.028 422.511 421.669 423.068 421.419C423.625 421.169 424.189 421.04 424.762 421.031C425.343 421.015 425.912 421.116 426.468 421.334C427.033 421.56 427.553 421.911 428.029 422.387C428.562 422.919 428.921 423.488 429.106 424.093C429.3 424.69 429.348 425.287 429.251 425.884C429.163 426.489 428.953 427.07 428.622 427.626C428.291 428.183 427.868 428.687 427.352 429.139L422.838 424.625ZM431.916 426.613L433.55 428.246L432.388 429.408L432.412 429.432C432.687 429.319 432.973 429.25 433.271 429.226C433.578 429.194 433.877 429.21 434.167 429.275C434.465 429.331 434.748 429.428 435.014 429.565C435.28 429.702 435.522 429.88 435.74 430.098C435.853 430.21 435.958 430.356 436.055 430.533L434.457 432.13C434.393 432.034 434.308 431.925 434.203 431.804C434.106 431.675 434.006 431.558 433.901 431.453C433.586 431.138 433.267 430.924 432.945 430.811C432.622 430.699 432.299 430.666 431.977 430.715C431.67 430.763 431.368 430.88 431.069 431.066C430.771 431.251 430.48 431.485 430.198 431.767L427.378 434.587L425.66 432.869L431.916 426.613Z" fill="#62AEC4"/>
</svg>
