<svg width="1512" height="258" viewBox="0 0 1512 258" fill="none" xmlns="http://www.w3.org/2000/svg">
<path d="M458.27 76.3542L289.208 245.416C281.707 252.918 271.533 257.132 260.924 257.132H-40.9796C-58.3477 257.132 -72.4274 243.052 -72.4274 225.684C-72.4274 208.316 -58.3477 194.236 -40.9796 194.236H233.779C244.387 194.236 254.561 190.022 262.063 182.521L432.811 11.7725C440.312 4.27104 450.487 0.0567627 461.095 0.0567627H1514.84C1532.67 0.0567627 1547.13 14.5139 1547.13 32.3476C1547.13 50.1814 1532.67 64.6385 1514.84 64.6385H486.554C475.946 64.6385 465.771 68.8528 458.27 76.3542Z" fill="#B5D5F1"/>
<path d="M1272.19 25.5939H1284.23V28.7619H1275.95V32.7219H1283.13L1283.13 35.6499H1275.95V42.7299H1272.19V25.5939ZM1286.05 30.3219H1289.29V32.6259H1289.34C1289.5 32.2419 1289.72 31.8899 1289.99 31.5699C1290.26 31.2339 1290.57 30.9539 1290.92 30.7299C1291.28 30.4899 1291.65 30.3059 1292.05 30.1779C1292.45 30.0499 1292.87 29.9859 1293.3 29.9859C1293.52 29.9859 1293.77 30.0259 1294.04 30.1059V33.2739C1293.88 33.2419 1293.69 33.2179 1293.47 33.2019C1293.24 33.1699 1293.03 33.1539 1292.82 33.1539C1292.2 33.1539 1291.67 33.2579 1291.24 33.4659C1290.8 33.6739 1290.45 33.9619 1290.18 34.3299C1289.92 34.6819 1289.74 35.0979 1289.63 35.5779C1289.52 36.0579 1289.46 36.5779 1289.46 37.1379V42.7299H1286.05V30.3219ZM1295.24 34.1379C1295.28 33.3379 1295.48 32.6739 1295.84 32.1459C1296.19 31.6179 1296.64 31.1939 1297.18 30.8739C1297.72 30.5539 1298.33 30.3299 1299 30.2019C1299.69 30.0579 1300.38 29.9859 1301.07 29.9859C1301.69 29.9859 1302.32 30.0339 1302.96 30.1299C1303.6 30.2099 1304.19 30.3779 1304.72 30.6339C1305.24 30.8899 1305.68 31.2499 1306.01 31.7139C1306.35 32.1619 1306.52 32.7619 1306.52 33.5139V39.9699C1306.52 40.5299 1306.55 41.0659 1306.61 41.5779C1306.68 42.0899 1306.79 42.4739 1306.95 42.7299H1303.49C1303.43 42.5379 1303.37 42.3459 1303.32 42.1539C1303.29 41.9459 1303.27 41.7379 1303.25 41.5299C1302.71 42.0899 1302.07 42.4819 1301.33 42.7059C1300.6 42.9299 1299.84 43.0419 1299.08 43.0419C1298.48 43.0419 1297.93 42.9699 1297.42 42.8259C1296.91 42.6819 1296.46 42.4579 1296.08 42.1539C1295.69 41.8499 1295.39 41.4659 1295.16 41.0019C1294.96 40.5379 1294.85 39.9859 1294.85 39.3459C1294.85 38.6419 1294.97 38.0659 1295.21 37.6179C1295.47 37.1539 1295.79 36.7859 1296.17 36.5139C1296.57 36.2419 1297.02 36.0419 1297.52 35.9139C1298.03 35.7699 1298.54 35.6579 1299.05 35.5779C1299.56 35.4979 1300.07 35.4339 1300.56 35.3859C1301.06 35.3379 1301.5 35.2659 1301.88 35.1699C1302.27 35.0739 1302.57 34.9379 1302.8 34.7619C1303.02 34.5699 1303.12 34.2979 1303.11 33.9459C1303.11 33.5779 1303.04 33.2899 1302.92 33.0819C1302.8 32.8579 1302.64 32.6899 1302.44 32.5779C1302.24 32.4499 1302.01 32.3699 1301.74 32.3379C1301.48 32.2899 1301.2 32.2659 1300.9 32.2659C1300.23 32.2659 1299.7 32.4099 1299.32 32.6979C1298.93 32.9859 1298.71 33.4659 1298.64 34.1379H1295.24ZM1303.11 36.6579C1302.96 36.7859 1302.78 36.8899 1302.56 36.9699C1302.35 37.0339 1302.12 37.0899 1301.86 37.1379C1301.62 37.1859 1301.36 37.2259 1301.09 37.2579C1300.82 37.2899 1300.55 37.3299 1300.28 37.3779C1300.02 37.4259 1299.76 37.4899 1299.51 37.5699C1299.27 37.6499 1299.05 37.7619 1298.86 37.9059C1298.68 38.0339 1298.54 38.2019 1298.43 38.4099C1298.32 38.6179 1298.26 38.8819 1298.26 39.2019C1298.26 39.5059 1298.32 39.7619 1298.43 39.9699C1298.54 40.1779 1298.69 40.3459 1298.88 40.4739C1299.08 40.5859 1299.3 40.6659 1299.56 40.7139C1299.81 40.7619 1300.08 40.7859 1300.35 40.7859C1301.02 40.7859 1301.54 40.6739 1301.91 40.4499C1302.28 40.2259 1302.55 39.9619 1302.72 39.6579C1302.9 39.3379 1303 39.0179 1303.04 38.6979C1303.08 38.3779 1303.11 38.1219 1303.11 37.9299V36.6579ZM1311.8 38.6979C1311.8 39.0659 1311.87 39.3859 1312.02 39.6579C1312.18 39.9139 1312.38 40.1299 1312.62 40.3059C1312.86 40.4659 1313.13 40.5859 1313.43 40.6659C1313.75 40.7459 1314.08 40.7859 1314.42 40.7859C1314.66 40.7859 1314.91 40.7619 1315.16 40.7139C1315.43 40.6499 1315.67 40.5619 1315.88 40.4499C1316.11 40.3219 1316.29 40.1619 1316.43 39.9699C1316.58 39.7619 1316.65 39.5059 1316.65 39.2019C1316.65 38.6899 1316.31 38.3059 1315.62 38.0499C1314.95 37.7939 1314 37.5379 1312.79 37.2819C1312.29 37.1699 1311.8 37.0419 1311.32 36.8979C1310.86 36.7379 1310.44 36.5379 1310.07 36.2979C1309.71 36.0419 1309.41 35.7299 1309.19 35.3619C1308.96 34.9779 1308.85 34.5139 1308.85 33.9699C1308.85 33.1699 1309 32.5139 1309.31 32.0019C1309.63 31.4899 1310.04 31.0899 1310.55 30.8019C1311.07 30.4979 1311.64 30.2899 1312.28 30.1779C1312.92 30.0499 1313.58 29.9859 1314.25 29.9859C1314.92 29.9859 1315.57 30.0499 1316.19 30.1779C1316.83 30.3059 1317.4 30.5219 1317.9 30.8259C1318.39 31.1299 1318.8 31.5379 1319.12 32.0499C1319.46 32.5459 1319.66 33.1779 1319.72 33.9459H1316.48C1316.43 33.2899 1316.19 32.8499 1315.74 32.6259C1315.29 32.3859 1314.76 32.2659 1314.15 32.2659C1313.96 32.2659 1313.75 32.2819 1313.53 32.3139C1313.31 32.3299 1313.1 32.3779 1312.91 32.4579C1312.73 32.5379 1312.58 32.6579 1312.45 32.8179C1312.32 32.9619 1312.26 33.1619 1312.26 33.4179C1312.26 33.7219 1312.37 33.9699 1312.59 34.1619C1312.82 34.3539 1313.11 34.5139 1313.46 34.6419C1313.83 34.7539 1314.24 34.8579 1314.71 34.9539C1315.17 35.0499 1315.64 35.1539 1316.12 35.2659C1316.62 35.3779 1317.1 35.5139 1317.56 35.6739C1318.04 35.8339 1318.47 36.0499 1318.83 36.3219C1319.2 36.5779 1319.5 36.9059 1319.72 37.3059C1319.95 37.6899 1320.06 38.1699 1320.06 38.7459C1320.06 39.5619 1319.89 40.2499 1319.55 40.8099C1319.23 41.3539 1318.81 41.7939 1318.28 42.1299C1317.75 42.4659 1317.15 42.6979 1316.46 42.8259C1315.79 42.9699 1315.1 43.0419 1314.39 43.0419C1313.67 43.0419 1312.97 42.9699 1312.28 42.8259C1311.59 42.6819 1310.98 42.4419 1310.43 42.1059C1309.91 41.7699 1309.47 41.3299 1309.11 40.7859C1308.78 40.2259 1308.59 39.5299 1308.56 38.6979H1311.8ZM1330.4 35.1939C1330.24 34.3299 1329.96 33.6739 1329.54 33.2259C1329.14 32.7779 1328.52 32.5539 1327.69 32.5539C1327.15 32.5539 1326.69 32.6499 1326.32 32.8419C1325.97 33.0179 1325.68 33.2419 1325.46 33.5139C1325.25 33.7859 1325.1 34.0739 1325 34.3779C1324.92 34.6819 1324.88 34.9539 1324.86 35.1939H1330.4ZM1324.86 37.3539C1324.91 38.4579 1325.19 39.2579 1325.7 39.7539C1326.21 40.2499 1326.95 40.4979 1327.91 40.4979C1328.6 40.4979 1329.19 40.3299 1329.68 39.9939C1330.18 39.6419 1330.48 39.2739 1330.6 38.8899H1333.6C1333.12 40.3779 1332.38 41.4419 1331.39 42.0819C1330.4 42.7219 1329.2 43.0419 1327.79 43.0419C1326.81 43.0419 1325.93 42.8899 1325.15 42.5859C1324.36 42.2659 1323.7 41.8179 1323.16 41.2419C1322.61 40.6659 1322.19 39.9779 1321.88 39.1779C1321.6 38.3779 1321.45 37.4979 1321.45 36.5379C1321.45 35.6099 1321.6 34.7459 1321.91 33.9459C1322.21 33.1459 1322.64 32.4579 1323.2 31.8819C1323.76 31.2899 1324.43 30.8259 1325.2 30.4899C1325.98 30.1539 1326.84 29.9859 1327.79 29.9859C1328.84 29.9859 1329.76 30.1939 1330.55 30.6099C1331.33 31.0099 1331.97 31.5539 1332.47 32.2419C1332.98 32.9299 1333.35 33.7139 1333.57 34.5939C1333.8 35.4739 1333.88 36.3939 1333.81 37.3539H1324.86ZM1335.83 30.3219H1339.07V32.6259H1339.12C1339.28 32.2419 1339.5 31.8899 1339.77 31.5699C1340.04 31.2339 1340.35 30.9539 1340.71 30.7299C1341.06 30.4899 1341.43 30.3059 1341.83 30.1779C1342.23 30.0499 1342.65 29.9859 1343.08 29.9859C1343.31 29.9859 1343.55 30.0259 1343.83 30.1059V33.2739C1343.67 33.2419 1343.47 33.2179 1343.25 33.2019C1343.03 33.1699 1342.81 33.1539 1342.6 33.1539C1341.98 33.1539 1341.45 33.2579 1341.02 33.4659C1340.59 33.6739 1340.23 33.9619 1339.96 34.3299C1339.71 34.6819 1339.52 35.0979 1339.41 35.5779C1339.3 36.0579 1339.24 36.5779 1339.24 37.1379V42.7299H1335.83V30.3219ZM1355.97 33.3459H1360.1C1360.96 33.3459 1361.61 33.1539 1362.04 32.7699C1362.47 32.3859 1362.69 31.7619 1362.69 30.8979C1362.69 30.0659 1362.47 29.4659 1362.04 29.0979C1361.61 28.7139 1360.96 28.5219 1360.1 28.5219H1355.97V33.3459ZM1352.2 25.5939L1361.44 25.5939C1362.21 25.5939 1362.9 25.7219 1363.51 25.9779C1364.13 26.2179 1364.66 26.5539 1365.09 26.9859C1365.54 27.4179 1365.87 27.9219 1366.1 28.4979C1366.34 29.0579 1366.46 29.6659 1366.46 30.3219C1366.46 31.3299 1366.24 32.2019 1365.81 32.9379C1365.39 33.6739 1364.71 34.2339 1363.75 34.6179V34.6659C1364.21 34.7939 1364.59 34.9939 1364.9 35.2659C1365.2 35.5219 1365.45 35.8339 1365.64 36.2019C1365.83 36.5539 1365.97 36.9459 1366.05 37.3779C1366.15 37.8099 1366.21 38.2419 1366.24 38.6739C1366.26 38.9459 1366.27 39.2659 1366.29 39.6339C1366.31 40.0019 1366.33 40.3779 1366.36 40.7619C1366.41 41.1459 1366.47 41.5139 1366.55 41.8659C1366.65 42.2019 1366.79 42.4899 1366.96 42.7299L1363.19 42.7299C1362.99 42.1859 1362.86 41.5379 1362.81 40.7859C1362.76 40.0339 1362.69 39.3139 1362.59 38.6259C1362.47 37.7299 1362.19 37.0739 1361.78 36.6579C1361.36 36.2419 1360.68 36.0339 1359.74 36.0339H1355.97V42.7299H1352.2V25.5939ZM1372.67 28.4019H1369.26V25.5939H1372.67V28.4019ZM1369.26 30.3219H1372.67V42.7299H1369.26V30.3219ZM1382.21 42.7299H1378.42L1374.17 30.3219H1377.75L1380.37 38.7939H1380.41L1383.03 30.3219H1386.41L1382.21 42.7299ZM1396.17 35.1939C1396.01 34.3299 1395.72 33.6739 1395.31 33.2259C1394.91 32.7779 1394.29 32.5539 1393.46 32.5539C1392.91 32.5539 1392.46 32.6499 1392.09 32.8419C1391.74 33.0179 1391.45 33.2419 1391.23 33.5139C1391.02 33.7859 1390.87 34.0739 1390.77 34.3779C1390.69 34.6819 1390.64 34.9539 1390.63 35.1939H1396.17ZM1390.63 37.3539C1390.67 38.4579 1390.95 39.2579 1391.47 39.7539C1391.98 40.2499 1392.71 40.4979 1393.67 40.4979C1394.36 40.4979 1394.95 40.3299 1395.45 39.9939C1395.95 39.6419 1396.25 39.2739 1396.36 38.8899H1399.36C1398.88 40.3779 1398.15 41.4419 1397.15 42.0819C1396.16 42.7219 1394.96 43.0419 1393.55 43.0419C1392.58 43.0419 1391.7 42.8899 1390.91 42.5859C1390.13 42.2659 1389.47 41.8179 1388.92 41.2419C1388.38 40.6659 1387.95 39.9779 1387.65 39.1779C1387.36 38.3779 1387.22 37.4979 1387.22 36.5379C1387.22 35.6099 1387.37 34.7459 1387.67 33.9459C1387.98 33.1459 1388.41 32.4579 1388.97 31.8819C1389.53 31.2899 1390.19 30.8259 1390.96 30.4899C1391.75 30.1539 1392.61 29.9859 1393.55 29.9859C1394.61 29.9859 1395.53 30.1939 1396.31 30.6099C1397.1 31.0099 1397.74 31.5539 1398.23 32.2419C1398.75 32.9299 1399.11 33.7139 1399.34 34.5939C1399.56 35.4739 1399.64 36.3939 1399.58 37.3539H1390.63ZM1401.6 30.3219H1404.84V32.6259H1404.89C1405.05 32.2419 1405.26 31.8899 1405.54 31.5699C1405.81 31.2339 1406.12 30.9539 1406.47 30.7299C1406.82 30.4899 1407.2 30.3059 1407.6 30.1779C1408 30.0499 1408.42 29.9859 1408.85 29.9859C1409.07 29.9859 1409.32 30.0259 1409.59 30.1059V33.2739C1409.43 33.2419 1409.24 33.2179 1409.02 33.2019C1408.79 33.1699 1408.58 33.1539 1408.37 33.1539C1407.74 33.1539 1407.22 33.2579 1406.78 33.4659C1406.35 33.6739 1406 33.9619 1405.73 34.3299C1405.47 34.6819 1405.29 35.0979 1405.18 35.5779C1405.06 36.0579 1405.01 36.5779 1405.01 37.1379V42.7299H1401.6V30.3219Z" fill="#62AEC4"/>
<path d="M52.5575 217.611H64.6055V220.779H56.3255V224.739H63.5015V227.667H56.3255V234.747H52.5575V217.611ZM66.4241 222.339H69.6641V224.643H69.7121C69.8721 224.259 70.0881 223.907 70.3601 223.587C70.6321 223.251 70.9441 222.971 71.2961 222.747C71.6481 222.507 72.0241 222.323 72.4241 222.195C72.8241 222.067 73.2401 222.003 73.6721 222.003C73.8961 222.003 74.1441 222.043 74.4161 222.123V225.291C74.2561 225.259 74.0641 225.235 73.8401 225.219C73.6161 225.187 73.4001 225.171 73.1921 225.171C72.5681 225.171 72.0401 225.275 71.6081 225.483C71.1761 225.691 70.8241 225.979 70.5521 226.347C70.2961 226.699 70.1121 227.115 70.0001 227.595C69.8881 228.075 69.8321 228.595 69.8321 229.155V234.747H66.4241V222.339ZM75.6082 226.155C75.6562 225.355 75.8562 224.691 76.2082 224.163C76.5602 223.635 77.0082 223.211 77.5522 222.891C78.0962 222.571 78.7042 222.347 79.3762 222.219C80.0642 222.075 80.7522 222.003 81.4402 222.003C82.0642 222.003 82.6962 222.051 83.3362 222.147C83.9762 222.227 84.5602 222.395 85.0882 222.651C85.6162 222.907 86.0482 223.267 86.3842 223.731C86.7202 224.179 86.8882 224.779 86.8882 225.531V231.987C86.8882 232.547 86.9202 233.083 86.9842 233.595C87.0482 234.107 87.1602 234.491 87.3202 234.747H83.8642C83.8002 234.555 83.7442 234.363 83.6962 234.171C83.6642 233.963 83.6402 233.755 83.6242 233.547C83.0802 234.107 82.4402 234.499 81.7042 234.723C80.9682 234.947 80.2162 235.059 79.4482 235.059C78.8562 235.059 78.3042 234.987 77.7922 234.843C77.2802 234.699 76.8322 234.475 76.4482 234.171C76.0642 233.867 75.7602 233.483 75.5362 233.019C75.3282 232.555 75.2242 232.003 75.2242 231.363C75.2242 230.659 75.3442 230.083 75.5842 229.635C75.8402 229.171 76.1602 228.803 76.5442 228.531C76.9442 228.259 77.3922 228.059 77.8882 227.931C78.4002 227.787 78.9122 227.675 79.4242 227.595C79.9362 227.515 80.4402 227.451 80.9362 227.403C81.4322 227.355 81.8722 227.283 82.2562 227.187C82.6402 227.091 82.9442 226.955 83.1682 226.779C83.3922 226.587 83.4962 226.315 83.4802 225.963C83.4802 225.595 83.4162 225.307 83.2882 225.099C83.1762 224.875 83.0162 224.707 82.8082 224.595C82.6162 224.467 82.3842 224.387 82.1122 224.355C81.8562 224.307 81.5762 224.283 81.2722 224.283C80.6002 224.283 80.0722 224.427 79.6882 224.715C79.3042 225.003 79.0802 225.483 79.0162 226.155H75.6082ZM83.4802 228.675C83.3362 228.803 83.1522 228.907 82.9282 228.987C82.7202 229.051 82.4882 229.107 82.2322 229.155C81.9922 229.203 81.7362 229.243 81.4642 229.275C81.1922 229.307 80.9202 229.347 80.6482 229.395C80.3922 229.443 80.1362 229.507 79.8802 229.587C79.6402 229.667 79.4242 229.779 79.2322 229.923C79.0562 230.051 78.9122 230.219 78.8002 230.427C78.6882 230.635 78.6322 230.899 78.6322 231.219C78.6322 231.523 78.6882 231.779 78.8002 231.987C78.9122 232.195 79.0642 232.363 79.2562 232.491C79.4482 232.603 79.6722 232.683 79.9282 232.731C80.1842 232.779 80.4482 232.803 80.7202 232.803C81.3922 232.803 81.9122 232.691 82.2802 232.467C82.6482 232.243 82.9202 231.979 83.0962 231.675C83.2722 231.355 83.3762 231.035 83.4082 230.715C83.4562 230.395 83.4802 230.139 83.4802 229.947V228.675ZM92.1734 230.715C92.1734 231.083 92.2454 231.403 92.3894 231.675C92.5494 231.931 92.7494 232.147 92.9894 232.323C93.2294 232.483 93.5014 232.603 93.8054 232.683C94.1254 232.763 94.4534 232.803 94.7894 232.803C95.0294 232.803 95.2774 232.779 95.5334 232.731C95.8054 232.667 96.0454 232.579 96.2534 232.467C96.4774 232.339 96.6614 232.179 96.8054 231.987C96.9494 231.779 97.0214 231.523 97.0214 231.219C97.0214 230.707 96.6774 230.323 95.9894 230.067C95.3174 229.811 94.3734 229.555 93.1574 229.299C92.6614 229.187 92.1734 229.059 91.6934 228.915C91.2294 228.755 90.8134 228.555 90.4454 228.315C90.0774 228.059 89.7814 227.747 89.5574 227.379C89.3334 226.995 89.2214 226.531 89.2214 225.987C89.2214 225.187 89.3734 224.531 89.6774 224.019C89.9974 223.507 90.4134 223.107 90.9254 222.819C91.4374 222.515 92.0134 222.307 92.6534 222.195C93.2934 222.067 93.9494 222.003 94.6214 222.003C95.2934 222.003 95.9414 222.067 96.5654 222.195C97.2054 222.323 97.7734 222.539 98.2694 222.843C98.7654 223.147 99.1734 223.555 99.4934 224.067C99.8294 224.563 100.029 225.195 100.093 225.963H96.8534C96.8054 225.307 96.5574 224.867 96.1094 224.643C95.6614 224.403 95.1334 224.283 94.5254 224.283C94.3334 224.283 94.1254 224.299 93.9014 224.331C93.6774 224.347 93.4694 224.395 93.2774 224.475C93.1014 224.555 92.9494 224.675 92.8214 224.835C92.6934 224.979 92.6294 225.179 92.6294 225.435C92.6294 225.739 92.7414 225.987 92.9654 226.179C93.1894 226.371 93.4774 226.531 93.8294 226.659C94.1974 226.771 94.6134 226.875 95.0774 226.971C95.5414 227.067 96.0134 227.171 96.4934 227.283C96.9894 227.395 97.4694 227.531 97.9334 227.691C98.4134 227.851 98.8374 228.067 99.2054 228.339C99.5734 228.595 99.8694 228.923 100.093 229.323C100.317 229.707 100.429 230.187 100.429 230.763C100.429 231.579 100.261 232.267 99.9254 232.827C99.6054 233.371 99.1814 233.811 98.6534 234.147C98.1254 234.483 97.5174 234.715 96.8294 234.843C96.1574 234.987 95.4694 235.059 94.7654 235.059C94.0454 235.059 93.3414 234.987 92.6534 234.843C91.9654 234.699 91.3494 234.459 90.8054 234.123C90.2774 233.787 89.8374 233.347 89.4854 232.803C89.1494 232.243 88.9654 231.547 88.9334 230.715H92.1734ZM110.776 227.211C110.616 226.347 110.328 225.691 109.912 225.243C109.512 224.795 108.896 224.571 108.064 224.571C107.52 224.571 107.064 224.667 106.696 224.859C106.344 225.035 106.056 225.259 105.832 225.531C105.624 225.803 105.472 226.091 105.376 226.395C105.296 226.699 105.248 226.971 105.232 227.211H110.776ZM105.232 229.371C105.28 230.475 105.56 231.275 106.072 231.771C106.584 232.267 107.32 232.515 108.28 232.515C108.968 232.515 109.56 232.347 110.056 232.011C110.552 231.659 110.856 231.291 110.968 230.907H113.968C113.488 232.395 112.752 233.459 111.76 234.099C110.768 234.739 109.568 235.059 108.16 235.059C107.184 235.059 106.304 234.907 105.52 234.603C104.736 234.283 104.072 233.835 103.528 233.259C102.984 232.683 102.56 231.995 102.256 231.195C101.968 230.395 101.824 229.515 101.824 228.555C101.824 227.627 101.976 226.763 102.28 225.963C102.584 225.163 103.016 224.475 103.576 223.899C104.136 223.307 104.8 222.843 105.568 222.507C106.352 222.171 107.216 222.003 108.16 222.003C109.216 222.003 110.136 222.211 110.92 222.627C111.704 223.027 112.344 223.571 112.84 224.259C113.352 224.947 113.72 225.731 113.944 226.611C114.168 227.491 114.248 228.411 114.184 229.371H105.232ZM116.205 222.339H119.445V224.643H119.493C119.653 224.259 119.869 223.907 120.141 223.587C120.413 223.251 120.725 222.971 121.077 222.747C121.429 222.507 121.805 222.323 122.205 222.195C122.605 222.067 123.021 222.003 123.453 222.003C123.677 222.003 123.925 222.043 124.197 222.123V225.291C124.037 225.259 123.845 225.235 123.621 225.219C123.397 225.187 123.181 225.171 122.973 225.171C122.349 225.171 121.821 225.275 121.389 225.483C120.957 225.691 120.605 225.979 120.333 226.347C120.077 226.699 119.893 227.115 119.781 227.595C119.669 228.075 119.613 228.595 119.613 229.155V234.747H116.205V222.339ZM136.341 225.363H140.469C141.333 225.363 141.981 225.171 142.413 224.787C142.845 224.403 143.061 223.779 143.061 222.915C143.061 222.083 142.845 221.483 142.413 221.115C141.981 220.731 141.333 220.539 140.469 220.539H136.341V225.363ZM132.573 217.611H141.813C142.581 217.611 143.269 217.739 143.877 217.995C144.501 218.235 145.029 218.571 145.461 219.003C145.909 219.435 146.245 219.939 146.469 220.515C146.709 221.075 146.829 221.683 146.829 222.339C146.829 223.347 146.613 224.219 146.181 224.955C145.765 225.691 145.077 226.251 144.117 226.635V226.683C144.581 226.811 144.965 227.011 145.269 227.283C145.573 227.539 145.821 227.851 146.013 228.219C146.205 228.571 146.341 228.963 146.421 229.395C146.517 229.827 146.581 230.259 146.613 230.691C146.629 230.963 146.645 231.283 146.661 231.651C146.677 232.019 146.701 232.395 146.733 232.779C146.781 233.163 146.845 233.531 146.925 233.883C147.021 234.219 147.157 234.507 147.333 234.747H143.565C143.357 234.203 143.229 233.555 143.181 232.803C143.133 232.051 143.061 231.331 142.965 230.643C142.837 229.747 142.565 229.091 142.149 228.675C141.733 228.259 141.053 228.051 140.109 228.051H136.341V234.747H132.573V217.611ZM153.037 220.419H149.629V217.611H153.037V220.419ZM149.629 222.339H153.037V234.747H149.629V222.339ZM162.585 234.747H158.793L154.545 222.339H158.121L160.737 230.811H160.785L163.401 222.339H166.785L162.585 234.747ZM176.542 227.211C176.382 226.347 176.094 225.691 175.678 225.243C175.278 224.795 174.662 224.571 173.83 224.571C173.286 224.571 172.83 224.667 172.462 224.859C172.11 225.035 171.822 225.259 171.598 225.531C171.39 225.803 171.238 226.091 171.142 226.395C171.062 226.699 171.014 226.971 170.998 227.211H176.542ZM170.998 229.371C171.046 230.475 171.326 231.275 171.838 231.771C172.35 232.267 173.086 232.515 174.046 232.515C174.734 232.515 175.326 232.347 175.822 232.011C176.318 231.659 176.622 231.291 176.734 230.907H179.734C179.254 232.395 178.518 233.459 177.526 234.099C176.534 234.739 175.334 235.059 173.926 235.059C172.95 235.059 172.07 234.907 171.286 234.603C170.502 234.283 169.838 233.835 169.294 233.259C168.75 232.683 168.326 231.995 168.022 231.195C167.734 230.395 167.59 229.515 167.59 228.555C167.59 227.627 167.742 226.763 168.046 225.963C168.35 225.163 168.782 224.475 169.342 223.899C169.902 223.307 170.566 222.843 171.334 222.507C172.118 222.171 172.982 222.003 173.926 222.003C174.982 222.003 175.902 222.211 176.686 222.627C177.47 223.027 178.11 223.571 178.606 224.259C179.118 224.947 179.486 225.731 179.71 226.611C179.934 227.491 180.014 228.411 179.95 229.371H170.998ZM181.971 222.339H185.211V224.643H185.259C185.419 224.259 185.635 223.907 185.907 223.587C186.179 223.251 186.491 222.971 186.843 222.747C187.195 222.507 187.571 222.323 187.971 222.195C188.371 222.067 188.787 222.003 189.219 222.003C189.443 222.003 189.691 222.043 189.963 222.123V225.291C189.803 225.259 189.611 225.235 189.387 225.219C189.163 225.187 188.947 225.171 188.739 225.171C188.115 225.171 187.587 225.275 187.155 225.483C186.723 225.691 186.371 225.979 186.099 226.347C185.843 226.699 185.659 227.115 185.547 227.595C185.435 228.075 185.379 228.595 185.379 229.155V234.747H181.971V222.339Z" fill="#62AEC4"/>
</svg>
