<svg width="3191" height="258" viewBox="0 0 3191 258" fill="none" xmlns="http://www.w3.org/2000/svg">
<path d="M1231.58 76.4137L1062.52 245.476C1055.02 252.977 1044.85 257.191 1034.24 257.191H32.333C14.9649 257.191 0.885254 243.112 0.885254 225.744C0.885254 208.375 14.9649 194.296 32.333 194.296H1007.09C1017.7 194.296 1027.87 190.081 1035.38 182.58L1206.12 11.8319C1213.63 4.33048 1223.8 0.116211 1234.41 0.116211H3158.15C3175.99 0.116211 3190.44 14.5733 3190.44 32.4071C3190.44 50.2408 3175.98 64.6979 3158.15 64.6979H1259.87C1249.26 64.6979 1239.08 68.9122 1231.58 76.4137Z" fill="#B5D5F1"/>
<path d="M2045.5 25.6531H2057.55V28.8211H2049.27V32.7811H2056.44V35.7091H2049.27V42.7891H2045.5V25.6531ZM2059.36 30.3811H2062.6V32.6851H2062.65C2062.81 32.3011 2063.03 31.9491 2063.3 31.6291C2063.57 31.2931 2063.88 31.0131 2064.24 30.7891C2064.59 30.5491 2064.96 30.3651 2065.36 30.2371C2065.76 30.1091 2066.18 30.0451 2066.61 30.0451C2066.84 30.0451 2067.08 30.0851 2067.36 30.1651V33.3331C2067.2 33.3011 2067 33.2771 2066.78 33.2611C2066.56 33.2291 2066.34 33.2131 2066.13 33.2131C2065.51 33.2131 2064.98 33.3171 2064.55 33.5251C2064.12 33.7331 2063.76 34.0211 2063.49 34.3891C2063.24 34.7411 2063.05 35.1571 2062.94 35.6371C2062.83 36.1171 2062.77 36.6371 2062.77 37.1971V42.7891H2059.36V30.3811ZM2068.55 34.1971C2068.6 33.3971 2068.8 32.7331 2069.15 32.2051C2069.5 31.6771 2069.95 31.2531 2070.49 30.9331C2071.04 30.6131 2071.65 30.3891 2072.32 30.2611C2073.01 30.1171 2073.69 30.0451 2074.38 30.0451C2075.01 30.0451 2075.64 30.0931 2076.28 30.1891C2076.92 30.2691 2077.5 30.4371 2078.03 30.6931C2078.56 30.9491 2078.99 31.3091 2079.33 31.7731C2079.66 32.2211 2079.83 32.8211 2079.83 33.5731V40.0291C2079.83 40.5891 2079.86 41.1251 2079.93 41.6371C2079.99 42.1491 2080.1 42.5331 2080.26 42.7891H2076.81C2076.74 42.5971 2076.69 42.4051 2076.64 42.2131C2076.61 42.0051 2076.58 41.7971 2076.57 41.5891C2076.02 42.1491 2075.38 42.5411 2074.65 42.7651C2073.91 42.9891 2073.16 43.1011 2072.39 43.1011C2071.8 43.1011 2071.25 43.0291 2070.73 42.8851C2070.22 42.7411 2069.77 42.5171 2069.39 42.2131C2069.01 41.9091 2068.7 41.5251 2068.48 41.0611C2068.27 40.5971 2068.17 40.0451 2068.17 39.4051C2068.17 38.7011 2068.29 38.1251 2068.53 37.6771C2068.78 37.2131 2069.1 36.8451 2069.49 36.5731C2069.89 36.3011 2070.33 36.1011 2070.83 35.9731C2071.34 35.8291 2071.85 35.7171 2072.37 35.6371C2072.88 35.5571 2073.38 35.4931 2073.88 35.4451C2074.37 35.3971 2074.81 35.3251 2075.2 35.2291C2075.58 35.1331 2075.89 34.9971 2076.11 34.8211C2076.33 34.6291 2076.44 34.3571 2076.42 34.0051C2076.42 33.6371 2076.36 33.3491 2076.23 33.1411C2076.12 32.9171 2075.96 32.7491 2075.75 32.6371C2075.56 32.5091 2075.33 32.4291 2075.05 32.3971C2074.8 32.3491 2074.52 32.3251 2074.21 32.3251C2073.54 32.3251 2073.01 32.4691 2072.63 32.7571C2072.25 33.0451 2072.02 33.5251 2071.96 34.1971H2068.55ZM2076.42 36.7171C2076.28 36.8451 2076.09 36.9491 2075.87 37.0291C2075.66 37.0931 2075.43 37.1491 2075.17 37.1971C2074.93 37.2451 2074.68 37.2851 2074.41 37.3171C2074.13 37.3491 2073.86 37.3891 2073.59 37.4371C2073.33 37.4851 2073.08 37.5491 2072.82 37.6291C2072.58 37.7091 2072.37 37.8211 2072.17 37.9651C2072 38.0931 2071.85 38.2611 2071.74 38.4691C2071.63 38.6771 2071.57 38.9411 2071.57 39.2611C2071.57 39.5651 2071.63 39.8211 2071.74 40.0291C2071.85 40.2371 2072.01 40.4051 2072.2 40.5331C2072.39 40.6451 2072.61 40.7251 2072.87 40.7731C2073.13 40.8211 2073.39 40.8451 2073.66 40.8451C2074.33 40.8451 2074.85 40.7331 2075.22 40.5091C2075.59 40.2851 2075.86 40.0211 2076.04 39.7171C2076.21 39.3971 2076.32 39.0771 2076.35 38.7571C2076.4 38.4371 2076.42 38.1811 2076.42 37.9891V36.7171ZM2085.11 38.7571C2085.11 39.1251 2085.19 39.4451 2085.33 39.7171C2085.49 39.9731 2085.69 40.1891 2085.93 40.3651C2086.17 40.5251 2086.44 40.6451 2086.75 40.7251C2087.07 40.8051 2087.39 40.8451 2087.73 40.8451C2087.97 40.8451 2088.22 40.8211 2088.47 40.7731C2088.75 40.7091 2088.99 40.6211 2089.19 40.5091C2089.42 40.3811 2089.6 40.2211 2089.75 40.0291C2089.89 39.8211 2089.96 39.5651 2089.96 39.2611C2089.96 38.7491 2089.62 38.3651 2088.93 38.1091C2088.26 37.8531 2087.31 37.5971 2086.1 37.3411C2085.6 37.2291 2085.11 37.1011 2084.63 36.9571C2084.17 36.7971 2083.75 36.5971 2083.39 36.3571C2083.02 36.1011 2082.72 35.7891 2082.5 35.4211C2082.27 35.0371 2082.16 34.5731 2082.16 34.0291C2082.16 33.2291 2082.31 32.5731 2082.62 32.0611C2082.94 31.5491 2083.35 31.1491 2083.87 30.8611C2084.38 30.5571 2084.95 30.3491 2085.59 30.2371C2086.23 30.1091 2086.89 30.0451 2087.56 30.0451C2088.23 30.0451 2088.88 30.1091 2089.51 30.2371C2090.15 30.3651 2090.71 30.5811 2091.21 30.8851C2091.71 31.1891 2092.11 31.5971 2092.43 32.1091C2092.77 32.6051 2092.97 33.2371 2093.03 34.0051H2089.79C2089.75 33.3491 2089.5 32.9091 2089.05 32.6851C2088.6 32.4451 2088.07 32.3251 2087.47 32.3251C2087.27 32.3251 2087.07 32.3411 2086.84 32.3731C2086.62 32.3891 2086.41 32.4371 2086.22 32.5171C2086.04 32.5971 2085.89 32.7171 2085.76 32.8771C2085.63 33.0211 2085.57 33.2211 2085.57 33.4771C2085.57 33.7811 2085.68 34.0291 2085.91 34.2211C2086.13 34.4131 2086.42 34.5731 2086.77 34.7011C2087.14 34.8131 2087.55 34.9171 2088.02 35.0131C2088.48 35.1091 2088.95 35.2131 2089.43 35.3251C2089.93 35.4371 2090.41 35.5731 2090.87 35.7331C2091.35 35.8931 2091.78 36.1091 2092.15 36.3811C2092.51 36.6371 2092.81 36.9651 2093.03 37.3651C2093.26 37.7491 2093.37 38.2291 2093.37 38.8051C2093.37 39.6211 2093.2 40.3091 2092.87 40.8691C2092.55 41.4131 2092.12 41.8531 2091.59 42.1891C2091.07 42.5251 2090.46 42.7571 2089.77 42.8851C2089.1 43.0291 2088.41 43.1011 2087.71 43.1011C2086.99 43.1011 2086.28 43.0291 2085.59 42.8851C2084.91 42.7411 2084.29 42.5011 2083.75 42.1651C2083.22 41.8291 2082.78 41.3891 2082.43 40.8451C2082.09 40.2851 2081.91 39.5891 2081.87 38.7571H2085.11ZM2103.72 35.2531C2103.56 34.3891 2103.27 33.7331 2102.85 33.2851C2102.45 32.8371 2101.84 32.6131 2101 32.6131C2100.46 32.6131 2100 32.7091 2099.64 32.9011C2099.28 33.0771 2099 33.3011 2098.77 33.5731C2098.56 33.8451 2098.41 34.1331 2098.32 34.4371C2098.24 34.7411 2098.19 35.0131 2098.17 35.2531H2103.72ZM2098.17 37.4131C2098.22 38.5171 2098.5 39.3171 2099.01 39.8131C2099.52 40.3091 2100.26 40.5571 2101.22 40.5571C2101.91 40.5571 2102.5 40.3891 2103 40.0531C2103.49 39.7011 2103.8 39.3331 2103.91 38.9491H2106.91C2106.43 40.4371 2105.69 41.5011 2104.7 42.1411C2103.71 42.7811 2102.51 43.1011 2101.1 43.1011C2100.12 43.1011 2099.24 42.9491 2098.46 42.6451C2097.68 42.3251 2097.01 41.8771 2096.47 41.3011C2095.92 40.7251 2095.5 40.0371 2095.2 39.2371C2094.91 38.4371 2094.76 37.5571 2094.76 36.5971C2094.76 35.6691 2094.92 34.8051 2095.22 34.0051C2095.52 33.2051 2095.96 32.5171 2096.52 31.9411C2097.08 31.3491 2097.74 30.8851 2098.51 30.5491C2099.29 30.2131 2100.16 30.0451 2101.1 30.0451C2102.16 30.0451 2103.08 30.2531 2103.86 30.6691C2104.64 31.0691 2105.28 31.6131 2105.78 32.3011C2106.29 32.9891 2106.66 33.7731 2106.88 34.6531C2107.11 35.5331 2107.19 36.4531 2107.12 37.4131H2098.17ZM2109.15 30.3811H2112.39V32.6851H2112.43C2112.59 32.3011 2112.81 31.9491 2113.08 31.6291C2113.35 31.2931 2113.67 31.0131 2114.02 30.7891C2114.37 30.5491 2114.75 30.3651 2115.15 30.2371C2115.55 30.1091 2115.96 30.0451 2116.39 30.0451C2116.62 30.0451 2116.87 30.0851 2117.14 30.1651V33.3331C2116.98 33.3011 2116.79 33.2771 2116.56 33.2611C2116.34 33.2291 2116.12 33.2131 2115.91 33.2131C2115.29 33.2131 2114.76 33.3171 2114.33 33.5251C2113.9 33.7331 2113.55 34.0211 2113.27 34.3891C2113.02 34.7411 2112.83 35.1571 2112.72 35.6371C2112.61 36.1171 2112.55 36.6371 2112.55 37.1971V42.7891H2109.15V30.3811ZM2129.28 33.4051H2133.41C2134.27 33.4051 2134.92 33.2131 2135.35 32.8291C2135.79 32.4451 2136 31.8211 2136 30.9571C2136 30.1251 2135.79 29.5251 2135.35 29.1571C2134.92 28.7731 2134.27 28.5811 2133.41 28.5811H2129.28V33.4051ZM2125.51 25.6531L2134.75 25.6531C2135.52 25.6531 2136.21 25.7811 2136.82 26.0371C2137.44 26.2771 2137.97 26.6131 2138.4 27.0451C2138.85 27.4771 2139.19 27.9811 2139.41 28.5571C2139.65 29.1171 2139.77 29.7251 2139.77 30.3811C2139.77 31.3891 2139.55 32.2611 2139.12 32.9971C2138.71 33.7331 2138.02 34.2931 2137.06 34.6771V34.7251C2137.52 34.8531 2137.91 35.0531 2138.21 35.3251C2138.51 35.5811 2138.76 35.8931 2138.95 36.2611C2139.15 36.6131 2139.28 37.0051 2139.36 37.4371C2139.46 37.8691 2139.52 38.3011 2139.55 38.7331C2139.57 39.0051 2139.59 39.3251 2139.6 39.6931C2139.62 40.0611 2139.64 40.4371 2139.67 40.8211C2139.72 41.2051 2139.79 41.5731 2139.87 41.9251C2139.96 42.2611 2140.1 42.5491 2140.27 42.7891L2136.51 42.7891C2136.3 42.2451 2136.17 41.5971 2136.12 40.8451C2136.07 40.0931 2136 39.3731 2135.91 38.6851C2135.78 37.7891 2135.51 37.1331 2135.09 36.7171C2134.67 36.3011 2133.99 36.0931 2133.05 36.0931H2129.28V42.7891H2125.51V25.6531ZM2145.98 28.4611H2142.57V25.6531H2145.98V28.4611ZM2142.57 30.3811H2145.98V42.7891H2142.57V30.3811ZM2155.53 42.7891H2151.73L2147.49 30.3811H2151.06L2153.68 38.8531H2153.73L2156.34 30.3811H2159.73L2155.53 42.7891ZM2169.48 35.2531C2169.32 34.3891 2169.03 33.7331 2168.62 33.2851C2168.22 32.8371 2167.6 32.6131 2166.77 32.6131C2166.23 32.6131 2165.77 32.7091 2165.4 32.9011C2165.05 33.0771 2164.76 33.3011 2164.54 33.5731C2164.33 33.8451 2164.18 34.1331 2164.08 34.4371C2164 34.7411 2163.95 35.0131 2163.94 35.2531H2169.48ZM2163.94 37.4131C2163.99 38.5171 2164.27 39.3171 2164.78 39.8131C2165.29 40.3091 2166.03 40.5571 2166.99 40.5571C2167.67 40.5571 2168.27 40.3891 2168.76 40.0531C2169.26 39.7011 2169.56 39.3331 2169.67 38.9491H2172.67C2172.19 40.4371 2171.46 41.5011 2170.47 42.1411C2169.47 42.7811 2168.27 43.1011 2166.87 43.1011C2165.89 43.1011 2165.01 42.9491 2164.23 42.6451C2163.44 42.3251 2162.78 41.8771 2162.23 41.3011C2161.69 40.7251 2161.27 40.0371 2160.96 39.2371C2160.67 38.4371 2160.53 37.5571 2160.53 36.5971C2160.53 35.6691 2160.68 34.8051 2160.99 34.0051C2161.29 33.2051 2161.72 32.5171 2162.28 31.9411C2162.84 31.3491 2163.51 30.8851 2164.27 30.5491C2165.06 30.2131 2165.92 30.0451 2166.87 30.0451C2167.92 30.0451 2168.84 30.2531 2169.63 30.6691C2170.41 31.0691 2171.05 31.6131 2171.55 32.3011C2172.06 32.9891 2172.43 33.7731 2172.65 34.6531C2172.87 35.5331 2172.95 36.4531 2172.89 37.4131H2163.94ZM2174.91 30.3811H2178.15V32.6851H2178.2C2178.36 32.3011 2178.58 31.9491 2178.85 31.6291C2179.12 31.2931 2179.43 31.0131 2179.78 30.7891C2180.14 30.5491 2180.51 30.3651 2180.91 30.2371C2181.31 30.1091 2181.73 30.0451 2182.16 30.0451C2182.38 30.0451 2182.63 30.0851 2182.9 30.1651V33.3331C2182.74 33.3011 2182.55 33.2771 2182.33 33.2611C2182.1 33.2291 2181.89 33.2131 2181.68 33.2131C2181.06 33.2131 2180.53 33.3171 2180.1 33.5251C2179.66 33.7331 2179.31 34.0211 2179.04 34.3891C2178.78 34.7411 2178.6 35.1571 2178.49 35.6371C2178.38 36.1171 2178.32 36.6371 2178.32 37.1971V42.7891H2174.91V30.3811Z" fill="#62AEC4"/>
<path d="M825.87 217.671H837.918V220.839H829.638V224.799H836.814V227.727H829.638V234.807H825.87V217.671ZM839.737 222.399H842.977V224.703H843.025C843.185 224.319 843.401 223.967 843.673 223.647C843.945 223.311 844.257 223.031 844.609 222.807C844.961 222.567 845.337 222.383 845.737 222.255C846.137 222.127 846.553 222.063 846.985 222.063C847.209 222.063 847.457 222.103 847.729 222.183V225.351C847.569 225.319 847.377 225.295 847.153 225.279C846.929 225.247 846.713 225.231 846.505 225.231C845.881 225.231 845.353 225.335 844.921 225.543C844.489 225.751 844.137 226.039 843.865 226.407C843.609 226.759 843.425 227.175 843.313 227.655C843.201 228.135 843.145 228.655 843.145 229.215V234.807H839.737V222.399ZM848.921 226.215C848.969 225.415 849.169 224.751 849.521 224.223C849.873 223.695 850.321 223.271 850.865 222.951C851.409 222.631 852.017 222.407 852.689 222.279C853.377 222.135 854.065 222.063 854.753 222.063C855.377 222.063 856.009 222.111 856.649 222.207C857.289 222.287 857.873 222.455 858.401 222.711C858.929 222.967 859.361 223.327 859.697 223.791C860.033 224.239 860.201 224.839 860.201 225.591V232.047C860.201 232.607 860.233 233.143 860.297 233.655C860.361 234.167 860.473 234.551 860.633 234.807H857.177C857.113 234.615 857.057 234.423 857.009 234.231C856.977 234.023 856.953 233.815 856.937 233.607C856.393 234.167 855.753 234.559 855.017 234.783C854.281 235.007 853.529 235.119 852.761 235.119C852.169 235.119 851.617 235.047 851.105 234.903C850.593 234.759 850.145 234.535 849.761 234.231C849.377 233.927 849.073 233.543 848.849 233.079C848.641 232.615 848.537 232.063 848.537 231.423C848.537 230.719 848.657 230.143 848.897 229.695C849.153 229.231 849.473 228.863 849.857 228.591C850.257 228.319 850.705 228.119 851.201 227.991C851.713 227.847 852.225 227.735 852.737 227.655C853.249 227.575 853.753 227.511 854.249 227.463C854.745 227.415 855.185 227.343 855.569 227.247C855.953 227.151 856.257 227.015 856.481 226.839C856.705 226.647 856.809 226.375 856.793 226.023C856.793 225.655 856.729 225.367 856.601 225.159C856.489 224.935 856.329 224.767 856.121 224.655C855.929 224.527 855.697 224.447 855.425 224.415C855.169 224.367 854.889 224.343 854.585 224.343C853.913 224.343 853.385 224.487 853.001 224.775C852.617 225.063 852.393 225.543 852.329 226.215H848.921ZM856.793 228.735C856.649 228.863 856.465 228.967 856.241 229.047C856.033 229.111 855.801 229.167 855.545 229.215C855.305 229.263 855.049 229.303 854.777 229.335C854.505 229.367 854.233 229.407 853.961 229.455C853.705 229.503 853.449 229.567 853.193 229.647C852.953 229.727 852.737 229.839 852.545 229.983C852.369 230.111 852.225 230.279 852.113 230.487C852.001 230.695 851.945 230.959 851.945 231.279C851.945 231.583 852.001 231.839 852.113 232.047C852.225 232.255 852.377 232.423 852.569 232.551C852.761 232.663 852.985 232.743 853.241 232.791C853.497 232.839 853.761 232.863 854.033 232.863C854.705 232.863 855.225 232.751 855.593 232.527C855.961 232.303 856.233 232.039 856.409 231.735C856.585 231.415 856.689 231.095 856.721 230.775C856.769 230.455 856.793 230.199 856.793 230.007V228.735ZM865.486 230.775C865.486 231.143 865.558 231.463 865.702 231.735C865.862 231.991 866.062 232.207 866.302 232.383C866.542 232.543 866.814 232.663 867.118 232.743C867.438 232.823 867.766 232.863 868.102 232.863C868.342 232.863 868.59 232.839 868.846 232.791C869.118 232.727 869.358 232.639 869.566 232.527C869.79 232.399 869.974 232.239 870.118 232.047C870.262 231.839 870.334 231.583 870.334 231.279C870.334 230.767 869.99 230.383 869.302 230.127C868.63 229.871 867.686 229.615 866.47 229.359C865.974 229.247 865.486 229.119 865.006 228.975C864.542 228.815 864.126 228.615 863.758 228.375C863.39 228.119 863.094 227.807 862.87 227.439C862.646 227.055 862.534 226.591 862.534 226.047C862.534 225.247 862.686 224.591 862.99 224.079C863.31 223.567 863.726 223.167 864.238 222.879C864.75 222.575 865.326 222.367 865.966 222.255C866.606 222.127 867.262 222.063 867.934 222.063C868.606 222.063 869.254 222.127 869.878 222.255C870.518 222.383 871.086 222.599 871.582 222.903C872.078 223.207 872.486 223.615 872.806 224.127C873.142 224.623 873.342 225.255 873.406 226.023H870.166C870.118 225.367 869.87 224.927 869.422 224.703C868.974 224.463 868.446 224.343 867.838 224.343C867.646 224.343 867.438 224.359 867.214 224.391C866.99 224.407 866.782 224.455 866.59 224.535C866.414 224.615 866.262 224.735 866.134 224.895C866.006 225.039 865.942 225.239 865.942 225.495C865.942 225.799 866.054 226.047 866.278 226.239C866.502 226.431 866.79 226.591 867.142 226.719C867.51 226.831 867.926 226.935 868.39 227.031C868.854 227.127 869.326 227.231 869.806 227.343C870.302 227.455 870.782 227.591 871.246 227.751C871.726 227.911 872.15 228.127 872.518 228.399C872.886 228.655 873.182 228.983 873.406 229.383C873.63 229.767 873.742 230.247 873.742 230.823C873.742 231.639 873.574 232.327 873.238 232.887C872.918 233.431 872.494 233.871 871.966 234.207C871.438 234.543 870.83 234.775 870.142 234.903C869.47 235.047 868.782 235.119 868.078 235.119C867.358 235.119 866.654 235.047 865.966 234.903C865.278 234.759 864.662 234.519 864.118 234.183C863.59 233.847 863.15 233.407 862.798 232.863C862.462 232.303 862.278 231.607 862.246 230.775H865.486ZM884.089 227.271C883.929 226.407 883.641 225.751 883.225 225.303C882.825 224.855 882.209 224.631 881.377 224.631C880.833 224.631 880.377 224.727 880.009 224.919C879.657 225.095 879.369 225.319 879.145 225.591C878.937 225.863 878.785 226.151 878.689 226.455C878.609 226.759 878.561 227.031 878.545 227.271H884.089ZM878.545 229.431C878.593 230.535 878.873 231.335 879.385 231.831C879.897 232.327 880.633 232.575 881.593 232.575C882.281 232.575 882.873 232.407 883.369 232.071C883.865 231.719 884.169 231.351 884.281 230.967H887.281C886.801 232.455 886.065 233.519 885.073 234.159C884.081 234.799 882.881 235.119 881.473 235.119C880.497 235.119 879.617 234.967 878.833 234.663C878.049 234.343 877.385 233.895 876.841 233.319C876.297 232.743 875.873 232.055 875.569 231.255C875.281 230.455 875.137 229.575 875.137 228.615C875.137 227.687 875.289 226.823 875.593 226.023C875.897 225.223 876.329 224.535 876.889 223.959C877.449 223.367 878.113 222.903 878.881 222.567C879.665 222.231 880.529 222.063 881.473 222.063C882.529 222.063 883.449 222.271 884.233 222.687C885.017 223.087 885.657 223.631 886.153 224.319C886.665 225.007 887.033 225.791 887.257 226.671C887.481 227.551 887.561 228.471 887.497 229.431H878.545ZM889.518 222.399H892.758V224.703H892.806C892.966 224.319 893.182 223.967 893.454 223.647C893.726 223.311 894.038 223.031 894.39 222.807C894.742 222.567 895.118 222.383 895.518 222.255C895.918 222.127 896.334 222.063 896.766 222.063C896.99 222.063 897.238 222.103 897.51 222.183V225.351C897.35 225.319 897.158 225.295 896.934 225.279C896.71 225.247 896.494 225.231 896.286 225.231C895.662 225.231 895.134 225.335 894.702 225.543C894.27 225.751 893.918 226.039 893.646 226.407C893.39 226.759 893.206 227.175 893.094 227.655C892.982 228.135 892.926 228.655 892.926 229.215V234.807H889.518V222.399ZM909.654 225.423H913.782C914.646 225.423 915.294 225.231 915.726 224.847C916.158 224.463 916.374 223.839 916.374 222.975C916.374 222.143 916.158 221.543 915.726 221.175C915.294 220.791 914.646 220.599 913.782 220.599H909.654V225.423ZM905.886 217.671H915.126C915.894 217.671 916.582 217.799 917.19 218.055C917.814 218.295 918.342 218.631 918.774 219.063C919.222 219.495 919.558 219.999 919.782 220.575C920.022 221.135 920.142 221.743 920.142 222.399C920.142 223.407 919.926 224.279 919.494 225.015C919.078 225.751 918.39 226.311 917.43 226.695V226.743C917.894 226.871 918.278 227.071 918.582 227.343C918.886 227.599 919.134 227.911 919.326 228.279C919.518 228.631 919.654 229.023 919.734 229.455C919.83 229.887 919.894 230.319 919.926 230.751C919.942 231.023 919.958 231.343 919.974 231.711C919.99 232.079 920.014 232.455 920.046 232.839C920.094 233.223 920.158 233.591 920.238 233.943C920.334 234.279 920.47 234.567 920.646 234.807H916.878C916.67 234.263 916.542 233.615 916.494 232.863C916.446 232.111 916.374 231.391 916.278 230.703C916.15 229.807 915.878 229.151 915.462 228.735C915.046 228.319 914.366 228.111 913.422 228.111H909.654V234.807H905.886V217.671ZM926.35 220.479H922.942V217.671H926.35V220.479ZM922.942 222.399H926.35V234.807H922.942V222.399ZM935.898 234.807H932.106L927.858 222.399H931.434L934.05 230.871H934.098L936.714 222.399H940.098L935.898 234.807ZM949.854 227.271C949.694 226.407 949.406 225.751 948.99 225.303C948.59 224.855 947.974 224.631 947.142 224.631C946.598 224.631 946.142 224.727 945.774 224.919C945.422 225.095 945.134 225.319 944.91 225.591C944.702 225.863 944.55 226.151 944.454 226.455C944.374 226.759 944.326 227.031 944.31 227.271H949.854ZM944.31 229.431C944.358 230.535 944.638 231.335 945.15 231.831C945.662 232.327 946.398 232.575 947.358 232.575C948.046 232.575 948.638 232.407 949.134 232.071C949.63 231.719 949.934 231.351 950.046 230.967H953.046C952.566 232.455 951.83 233.519 950.838 234.159C949.846 234.799 948.646 235.119 947.238 235.119C946.262 235.119 945.382 234.967 944.598 234.663C943.814 234.343 943.15 233.895 942.606 233.319C942.062 232.743 941.638 232.055 941.334 231.255C941.046 230.455 940.902 229.575 940.902 228.615C940.902 227.687 941.054 226.823 941.358 226.023C941.662 225.223 942.094 224.535 942.654 223.959C943.214 223.367 943.878 222.903 944.646 222.567C945.43 222.231 946.294 222.063 947.238 222.063C948.294 222.063 949.214 222.271 949.998 222.687C950.782 223.087 951.422 223.631 951.918 224.319C952.43 225.007 952.798 225.791 953.022 226.671C953.246 227.551 953.326 228.471 953.262 229.431H944.31ZM955.284 222.399H958.524V224.703H958.572C958.732 224.319 958.948 223.967 959.22 223.647C959.492 223.311 959.804 223.031 960.156 222.807C960.508 222.567 960.884 222.383 961.284 222.255C961.684 222.127 962.1 222.063 962.532 222.063C962.756 222.063 963.004 222.103 963.276 222.183V225.351C963.116 225.319 962.924 225.295 962.7 225.279C962.476 225.247 962.26 225.231 962.052 225.231C961.428 225.231 960.9 225.335 960.468 225.543C960.036 225.751 959.684 226.039 959.412 226.407C959.156 226.759 958.972 227.175 958.86 227.655C958.748 228.135 958.692 228.655 958.692 229.215V234.807H955.284V222.399Z" fill="#62AEC4"/>
</svg>
